<svg width="20" height="22" viewBox="0 0 20 22" fill="none" xmlns="http://www.w3.org/2000/svg">
    <path d="M7.14887 3.448C7.74519 1.698 10.1564 1.645 10.8634 3.289L10.9232 3.449L11.7279 5.809C11.9124 6.35023 12.2104 6.84551 12.6019 7.26142C12.9934 7.67734 13.4693 8.00421 13.9975 8.22L14.2139 8.301L16.5673 9.107C18.3123 9.705 18.3652 12.123 16.7268 12.832L16.5673 12.892L14.2139 13.699C13.674 13.8838 13.1799 14.1826 12.765 14.5753C12.3501 14.9679 12.024 15.4452 11.8087 15.975L11.7279 16.191L10.9242 18.552C10.3279 20.302 7.91671 20.355 7.2107 18.712L7.14887 18.552L6.34514 16.192C6.16085 15.6506 5.86288 15.1551 5.47135 14.739C5.07983 14.3229 4.60386 13.9959 4.07556 13.78L3.86016 13.699L1.50681 12.893C-0.239255 12.295 -0.292106 9.877 1.34726 9.169L1.50681 9.107L3.86016 8.301C4.39987 8.11606 4.89376 7.81719 5.3085 7.42457C5.72324 7.03195 6.04919 6.55469 6.26437 6.025L6.34514 5.809L7.14887 3.448ZM9.03654 4.094L8.23281 6.454C7.952 7.2793 7.49516 8.0333 6.89413 8.6635C6.2931 9.29369 5.5623 9.78493 4.75264 10.103L4.50335 10.194L2.15 11L4.50335 11.806C5.32633 12.0876 6.0782 12.5457 6.70662 13.1485C7.33504 13.7512 7.82489 14.4841 8.14207 15.296L8.23281 15.546L9.03654 17.906L9.84027 15.546C10.1211 14.7207 10.5779 13.9667 11.179 13.3365C11.78 12.7063 12.5108 12.2151 13.3204 11.897L13.5697 11.807L15.9231 11L13.5697 10.194C12.7468 9.91239 11.9949 9.45427 11.3665 8.85154C10.738 8.2488 10.2482 7.51595 9.93102 6.704L9.84127 6.454L9.03654 4.094ZM17.014 1.80688e-07C17.2006 -2.35972e-07 17.3834 0.0524783 17.5417 0.151472C17.7 0.250465 17.8274 0.392003 17.9095 0.56L17.9573 0.677L18.3064 1.703L19.3305 2.053C19.5174 2.1167 19.6813 2.23462 19.8014 2.39182C19.9214 2.54902 19.9922 2.73842 20.0048 2.93602C20.0174 3.13362 19.9713 3.33053 19.8722 3.50179C19.773 3.67304 19.6255 3.81094 19.4481 3.898L19.3305 3.946L18.3074 4.296L17.9583 5.323C17.8947 5.51043 17.777 5.6747 17.6202 5.79499C17.4634 5.91529 17.2745 5.98619 17.0775 5.99872C16.8804 6.01125 16.6841 5.96484 16.5134 5.86538C16.3427 5.76591 16.2053 5.61787 16.1185 5.44L16.0707 5.323L15.7217 4.297L14.6976 3.947C14.5106 3.8833 14.3467 3.76538 14.2267 3.60819C14.1066 3.45099 14.0358 3.26158 14.0232 3.06398C14.0106 2.86638 14.0568 2.66947 14.1559 2.49821C14.255 2.32696 14.4025 2.18906 14.5799 2.102L14.6976 2.054L15.7207 1.704L16.0697 0.677C16.1369 0.479426 16.2641 0.307909 16.4335 0.186499C16.6028 0.065089 16.8058 -0.000125281 17.014 1.80688e-07Z" fill="#3E5ECF"/>
</svg>
