<svg width="22" height="17" viewBox="0 0 22 17" fill="none" xmlns="http://www.w3.org/2000/svg">
<g clip-path="url(#clip0_383_1433)">
<path d="M7.14011 12.7912L8.02308 11.1951C7.36651 10.7196 6.85333 10.1197 6.48354 9.39519C6.11375 8.6707 5.92885 7.9047 5.92885 7.0972C5.92885 6.18404 6.15903 5.33503 6.61938 4.55016C4.89117 5.43313 3.45351 6.76514 2.3064 8.54618C3.56671 10.4932 5.17795 11.9083 7.14011 12.7912ZM11.3852 4.58412C11.3852 4.58412 11.4116 4.55771 11.4644 4.50488C11.5172 4.45205 11.5436 4.35017 11.5436 4.19924C11.5436 4.0483 11.4908 3.92001 11.3852 3.81435C11.2795 3.7087 11.1512 3.65587 11.0003 3.65587C10.0569 3.65587 9.24754 3.99359 8.57211 4.66902C7.89667 5.34446 7.55895 6.15385 7.55895 7.0972C7.55895 7.24813 7.61178 7.37643 7.71743 7.48208C7.82309 7.58774 7.95138 7.64056 8.10232 7.64056C8.25326 7.64056 8.38155 7.58774 8.48721 7.48208C8.59286 7.37643 8.64569 7.24813 8.64569 7.0972C8.64569 6.44817 8.87586 5.89349 9.33622 5.43313C9.79657 4.97278 10.3513 4.74261 11.0003 4.74261C11.1512 4.74261 11.2795 4.68978 11.3852 4.58412ZM15.6529 2.03709C15.6529 2.08992 15.6491 2.12388 15.6415 2.13897C14.8416 3.56531 13.6492 5.70482 12.0644 8.5575C10.4796 11.4102 9.29094 13.5459 8.49853 14.9647L7.94384 15.9722C7.86837 16.0929 7.76272 16.1533 7.62687 16.1533C7.53631 16.1533 7.03068 15.8892 6.10997 15.3609C5.98922 15.2854 5.92885 15.1798 5.92885 15.0439C5.92885 14.9534 6.09488 14.6251 6.42694 14.0591C5.34775 13.5686 4.35346 12.9158 3.44408 12.1007C2.53469 11.2857 1.74794 10.3612 1.08382 9.32727C0.93289 9.09332 0.857422 8.83295 0.857422 8.54618C0.857422 8.2594 0.93289 7.99904 1.08382 7.76509C2.23848 5.9916 3.67237 4.59167 5.38548 3.56531C7.0986 2.53895 8.9702 2.02577 11.0003 2.02577C11.6719 2.02577 12.3512 2.08992 13.0379 2.21821L13.6492 1.12016C13.7247 0.999407 13.8303 0.939034 13.9662 0.939034C14.0039 0.939034 14.0718 0.961674 14.1699 1.00695C14.268 1.05223 14.385 1.11072 14.5208 1.18242C14.6567 1.25411 14.7812 1.32392 14.8944 1.39184C15.0076 1.45976 15.1265 1.52957 15.251 1.60126C15.3755 1.67296 15.4491 1.71635 15.4717 1.73144C15.5925 1.80691 15.6529 1.90879 15.6529 2.03709ZM16.0717 7.0972C16.0717 8.1462 15.7736 9.10275 15.1774 9.96686C14.5812 10.831 13.7926 11.4517 12.8115 11.829L15.9811 6.1463C16.0415 6.48591 16.0717 6.80287 16.0717 7.0972ZM20.9167 7.76509C21.0677 8.02168 21.1431 8.28204 21.1431 8.54618C21.1431 8.81031 21.0677 9.07068 20.9167 9.32727C20.6224 9.81026 20.2111 10.3574 19.6828 10.9687C18.5508 12.2667 17.2396 13.2742 15.7491 13.9912C14.2586 14.7081 12.6757 15.0666 11.0003 15.0666L11.838 13.5723C13.4379 13.4365 14.9189 12.9195 16.2811 12.0215C17.6433 11.1234 18.781 9.96497 19.6942 8.54618C18.8263 7.1953 17.7622 6.08593 16.5019 5.21805L17.215 3.95019C17.932 4.43319 18.6206 5.01052 19.281 5.68218C19.9413 6.35384 20.4866 7.04814 20.9167 7.76509Z" fill="#6A6A6A"/>
</g>
<defs>
<clipPath id="clip0_383_1433">
<rect width="22" height="17" fill="white" transform="matrix(1 0 0 -1 0 17)"/>
</clipPath>
</defs>
</svg>
