<svg width="90" height="60" viewBox="0 0 90 60" fill="none" xmlns="http://www.w3.org/2000/svg">
    <g clip-path="url(#clip0_104_11739)">
        <path opacity="0.3" d="M47.6538 25.5864C47.6538 25.5864 50.9547 18.6102 56.8781 19.0966C56.8781 19.0966 58.0267 19.2087 58.1268 20.5478C58.2269 21.8869 56.0013 21.3946 54.5175 21.59C53.0332 21.7849 49.3649 23.2028 47.6538 25.5864Z" fill="#2D6BD4"/>
        <path opacity="0.3" d="M47.8218 24.1798C47.8218 24.1798 48.5473 17.9481 53.2113 16.7302C53.2113 16.7302 54.1203 16.5075 54.5432 17.5064C54.9658 18.5055 53.1338 18.7261 52.0474 19.2741C50.9609 19.8226 48.5167 21.894 47.8218 24.1798ZM33.9298 33.9814C33.9298 33.9814 36.2522 39.4524 35.2297 39.8208C34.2075 40.189 33.0721 33.5381 33.0721 33.5381C33.0721 33.5381 27.3094 32.1428 25.3156 32.7971C25.3156 32.7971 29.7779 37.6514 28.6958 37.7514C27.614 37.8509 22.7418 33.0174 22.7418 33.0174C22.7418 33.0174 17.191 33.1951 17.0536 36.6068C16.9161 40.0185 18.6554 41.3222 19.4894 41.3484C20.3233 41.3741 25.3719 40.1815 25.39 40.8817C25.4082 41.5821 22.2274 43.4164 20.186 43.2362C20.186 43.2362 23.4707 48.0707 26.1731 47.1882C28.8755 46.3055 29.3416 44.3703 31.0217 43.856C32.7016 43.3418 34.0556 43.5337 33.3051 44.1935C32.5548 44.8533 29.5912 45.1811 28.4769 46.6864C27.3627 48.1917 26.4091 49.1786 29.0932 49.1453C31.7774 49.1119 36.306 47.753 36.7782 45.5347C37.3142 45.711 38.3226 46.8965 39.0444 47.818C39.1537 47.9778 39.3188 48.1959 39.5568 48.4888C39.6569 48.6229 39.7372 48.733 39.7932 48.8099C41.2111 50.9176 41.6198 55.0107 41.6198 55.0107L42.2012 55.0389C42.5207 50.7508 39.6561 47.9238 39.6561 47.9238C37.6925 45.6132 37.2501 43.3165 37.2501 43.3165C37.2501 43.3165 41.5548 39.4009 38.4011 36.0866C38.4011 36.0866 36.0369 34.1469 33.9298 33.9814ZM58.2293 54.3387C59.1991 52.9232 57.036 51.0972 57.036 51.0972C57.036 51.0972 53.6382 51.5007 53.236 51.1183C52.8337 50.7361 56.0741 50.1949 56.0741 50.1949C55.4744 49.3014 52.7538 48.0407 52.7538 48.0407C52.7538 48.0407 50.3021 50.3561 50.0046 49.8848C49.707 49.4135 52.2782 47.9479 52.2782 47.9479C51.3871 47.3483 49.8601 47.3809 49.8601 47.3809C47.6051 47.7167 48.1478 50.6518 48.1478 50.6518C48.1478 50.6518 47.281 51.4353 45.803 51.7436C45.803 51.7436 45.5112 51.7774 45.0862 51.9216L45.265 52.1397C45.337 52.1085 45.4082 52.0811 45.4794 52.0575C45.4798 52.057 45.4801 52.057 45.4807 52.057C45.5446 52.0384 45.6086 52.0203 45.6727 52.0026H45.6735C45.856 51.9604 45.9872 51.925 46.0788 51.8954L46.0795 51.8951C46.6445 51.753 47.4032 51.5951 47.6701 51.6934C47.6701 51.6934 47.6838 51.6412 47.7297 51.563L47.6701 51.6934C47.1926 52.7347 48.5928 54.7129 49.6545 55.5747C50.7165 56.4366 50.6321 55.7384 50.639 54.7807C50.6462 53.8231 49.5614 52.7549 49.4599 52.2521C49.3586 51.7496 49.957 52.1006 50.4731 52.838C50.9894 53.5759 50.5944 54.5015 51.4081 55.7106C52.2219 56.9198 54.9863 56.0144 54.9863 56.0144C54.1171 55.4414 53.3977 53.6985 53.6155 53.4223C53.8332 53.1465 55.4909 55.2221 55.8315 55.4753C56.1722 55.7283 57.2591 55.7536 58.2293 54.3387Z" fill="#2D6BD4"/>
        <path d="M15.6883 20.1465L17.1058 42.8074L16.4056 42.8532C16.3977 42.8535 15.8733 40.7003 15.8733 40.7003L14.5918 20.2177L15.6883 20.1465Z" fill="#2D6BD4"/>
        <path d="M16.5576 42.8432L16.8928 44.2893L16.9691 42.8164L16.5576 42.8432Z" fill="#0B0755"/>
        <path d="M16.1181 40.4591C16.1123 40.3653 16.1246 40.2712 16.1544 40.1823C16.1842 40.0934 16.2309 40.0113 16.2918 39.9408C16.3527 39.8703 16.4266 39.8127 16.5094 39.7713C16.5922 39.7299 16.6821 39.7056 16.7741 39.6997C16.866 39.6937 16.9582 39.7063 17.0454 39.7367C17.1326 39.767 17.213 39.8146 17.2822 39.8767C17.3513 39.9388 17.4078 40.0141 17.4484 40.0984C17.4889 40.1828 17.5128 40.2744 17.5187 40.3682C17.5245 40.4619 17.5122 40.5559 17.4824 40.6448C17.4526 40.7337 17.4059 40.8157 17.3451 40.8862C17.2842 40.9567 17.2103 41.0143 17.1276 41.0557C17.0449 41.0971 16.955 41.1214 16.8631 41.1274C16.7711 41.1334 16.6789 41.1209 16.5917 41.0906C16.5044 41.0602 16.4239 41.0127 16.3548 40.9506C16.2856 40.8886 16.2291 40.8132 16.1885 40.7289C16.1479 40.6445 16.124 40.5528 16.1181 40.4591Z" fill="#FFD850"/>
        <path d="M16.2129 20.007L26.9988 39.8748L27.6131 39.5284C27.6197 39.5247 26.9236 37.4228 26.9236 37.4228L17.1743 19.4648L16.2129 20.007Z" fill="#2D6BD4"/>
        <path d="M27.48 39.6045L27.9622 41.0065L27.1196 39.8079L27.48 39.6045Z" fill="#0B0755"/>
        <path d="M24.8161 32.7061L24.4688 32.902L25.3259 34.4808L25.6733 34.2849L24.8161 32.7061Z" fill="#FFD850"/>
        <path d="M15.1608 15.7765L14.3687 16.0078L15.1506 18.7887L15.9428 18.5573L15.1608 15.7765Z" fill="#0B0755"/>
        <path d="M17.2895 19.2782L17.1213 20.8818L17.8909 23.6178L16.1305 24.1319L15.361 21.3961L14.385 20.127C14.1553 19.3102 14.6189 18.4577 15.4206 18.2234L15.4222 18.2231C16.2236 17.9888 17.0601 18.4614 17.2895 19.2782Z" fill="#FF8550"/>
        <path d="M15.429 19.775C15.4141 19.7219 15.4096 19.6664 15.4158 19.6116C15.4219 19.5568 15.4386 19.5038 15.4648 19.4555C15.4911 19.4073 15.5264 19.3648 15.5688 19.3305C15.6111 19.2961 15.6597 19.2707 15.7117 19.2555C15.7637 19.2403 15.8182 19.2357 15.8719 19.242C15.9257 19.2483 15.9777 19.2653 16.025 19.292C16.0723 19.3188 16.114 19.3548 16.1476 19.398C16.1813 19.4412 16.2063 19.4907 16.2212 19.5437C16.2361 19.5968 16.2406 19.6523 16.2344 19.7071C16.2283 19.7619 16.2116 19.815 16.1853 19.8632C16.1591 19.9114 16.1238 19.9539 16.0814 19.9882C16.0391 20.0226 15.9905 20.048 15.9385 20.0632C15.8865 20.0784 15.832 20.083 15.7783 20.0767C15.7245 20.0705 15.6725 20.0535 15.6252 20.0267C15.5779 19.9999 15.5362 19.9639 15.5025 19.9207C15.4689 19.8775 15.4439 19.828 15.429 19.775Z" fill="#0B0755"/>
        <g opacity="0.5">
            <path d="M63.6259 13.7532H63.347V13.6486H63.5237V13.4684H63.6259V13.7532ZM62.8729 13.7532H62.3989V13.649H62.8729V13.7532ZM61.9245 13.7532H61.4507V13.649H61.9245V13.7532ZM60.9768 13.7532H60.5028V13.649H60.9768V13.7532ZM60.0289 13.7532H59.5551V13.649H60.0289V13.7532ZM59.081 13.7532H58.6072V13.649H59.081V13.7532ZM58.1328 13.7532H57.6589V13.649H58.1328V13.7532ZM57.1849 13.7532H56.7111V13.649H57.1849V13.7532ZM56.2372 13.7532H55.7632V13.649H56.2372V13.7532ZM55.2893 13.7532H54.8153V13.649H55.2893V13.7532ZM54.3414 13.7532H54.062V13.4684H54.1644V13.6485H54.3414V13.7532ZM54.1644 13.0232H54.062V12.5781H54.1644V13.0232ZM54.1644 12.1336H54.062V11.6883H54.1644V12.1336ZM54.1644 11.2433H54.062V10.7982H54.1644V11.2433ZM54.1644 10.3535H54.062V9.90842H54.1644V10.3535ZM54.1644 9.46335H54.062V9.01829H54.1644V9.46335ZM54.1644 8.57375H54.062V8.1285H54.1644V8.57375ZM54.1644 7.68343H54.062V7.23836H54.1644V7.68343ZM54.1644 6.79365H54.062V6.34858H54.1644V6.79365ZM54.1644 5.90351H54.062V5.61914H54.3414V5.72332H54.1644V5.90351ZM62.8729 5.7235H62.3989V5.61914H62.8729V5.7235ZM61.9245 5.7235H61.4507V5.61914H61.9245V5.7235ZM60.9768 5.7235H60.5028V5.61914H60.9768V5.7235ZM60.0289 5.7235H59.5551V5.61914H60.0289V5.7235ZM59.081 5.7235H58.6072V5.61914H59.081V5.7235ZM58.1328 5.7235H57.6589V5.61914H58.1328V5.7235ZM57.1849 5.7235H56.7111V5.61914H57.1849V5.7235ZM56.2372 5.7235H55.7632V5.61914H56.2372V5.7235ZM55.2893 5.7235H54.8153V5.61914H55.2893V5.7235ZM63.6259 5.90351H63.5237V5.7235H63.347V5.61914H63.6259V5.90351ZM63.6259 13.0232H63.5235V12.5785H63.6259V13.0232ZM63.6259 12.1336H63.5235V11.6885H63.6259V12.1336ZM63.6259 11.2435H63.5235V10.7982H63.6259V11.2435ZM63.6259 10.3537H63.5235V9.90842H63.6259V10.3537ZM63.6259 9.46353H63.5235V9.01829H63.6259V9.46353ZM63.6259 8.57375H63.5235V8.12868H63.6259V8.57375ZM63.6259 7.68343H63.5235V7.23836H63.6259V7.68343ZM63.6259 6.79383H63.5235V6.34876H63.6259V6.79383Z" fill="#2D6BD4"/>
        </g>
        <g opacity="0.5">
            <path d="M64.9913 17.6921C64.8205 17.6921 64.6477 17.6829 64.4785 17.6652L64.4901 17.5495C64.6557 17.5669 64.8241 17.5757 64.9913 17.5757V17.6921ZM65.5042 17.6661L65.4926 17.5504C65.6592 17.5333 65.8248 17.5075 65.9889 17.4731L66.0116 17.5871C65.8453 17.6221 65.6743 17.6487 65.5042 17.6661ZM63.9711 17.5849C63.8039 17.5495 63.6366 17.5048 63.474 17.452L63.5084 17.3417C63.6672 17.393 63.8307 17.437 63.9939 17.4715L63.9711 17.5849ZM66.5091 17.4556L66.4747 17.3445C66.6344 17.2932 66.7914 17.2333 66.9449 17.1652L66.9904 17.272C66.8337 17.3411 66.6718 17.403 66.5091 17.4556ZM62.993 17.2681C62.8366 17.1985 62.6821 17.12 62.5332 17.0344L62.589 16.9331C62.7342 17.0167 62.8858 17.094 63.0382 17.1618L62.993 17.2681ZM67.4504 17.039L67.3944 16.9379C67.5404 16.8543 67.6821 16.7631 67.8188 16.6645L67.8846 16.7593C67.7446 16.86 67.5997 16.9533 67.4504 17.039ZM62.0995 16.7538C61.9597 16.6528 61.825 16.5447 61.6958 16.4299L61.7707 16.3426C61.8968 16.4548 62.0283 16.5605 62.1648 16.6594L62.0995 16.7538ZM68.2885 16.4361L68.2136 16.3484C68.3399 16.2363 68.4605 16.1177 68.575 15.9932L68.6581 16.0725C68.5411 16.2001 68.4177 16.3215 68.2885 16.4361ZM61.3274 16.0653C61.2107 15.9374 61.1003 15.8037 60.9968 15.6645L61.0878 15.5945C61.189 15.7305 61.2968 15.8612 61.411 15.9861L61.3274 16.0653ZM68.9896 15.6727L68.8991 15.6021C69.0004 15.4662 69.0949 15.3251 69.1821 15.1794L69.2794 15.2396C69.1908 15.3883 69.0932 15.5337 68.9896 15.6727ZM60.7078 15.2317C60.6189 15.0824 60.5376 14.9287 60.464 14.771L60.567 14.7214C60.6386 14.8748 60.7191 15.0261 60.8055 15.1714L60.7078 15.2317ZM69.5245 14.7799L69.4218 14.7297C69.4939 14.5761 69.5583 14.417 69.6143 14.2572L69.7215 14.296C69.6639 14.4606 69.5981 14.6221 69.5245 14.7799ZM60.2675 14.2871C60.2102 14.1225 60.1615 13.9549 60.1213 13.785L60.2319 13.7577C60.2711 13.923 60.3193 14.088 60.3747 14.2483L60.2675 14.2871ZM69.8689 13.7944L69.7578 13.7669C69.7973 13.602 69.8287 13.4328 69.8515 13.2645L69.9644 13.2801C69.9413 13.4523 69.909 13.6255 69.8689 13.7944ZM60.0266 13.2703C60.0036 13.0974 59.9894 12.9233 59.9839 12.7489L60.0977 12.7452C60.1031 12.9156 60.1172 13.0869 60.1396 13.2552L60.0266 13.2703ZM70.0079 12.7583L69.8941 12.7544C69.8999 12.5838 69.8971 12.413 69.8857 12.2427L69.9995 12.2351C70.0109 12.4092 70.0137 12.5838 70.0079 12.7583ZM60.0953 12.5806H59.9815C59.9815 12.4059 59.9901 12.2305 60.0075 12.0579L60.121 12.0698C60.104 12.2381 60.0953 12.4101 60.0953 12.5806ZM69.827 11.7347C69.7987 11.5666 69.7621 11.4 69.7173 11.2356L69.827 11.2044C69.873 11.3719 69.9106 11.5435 69.9392 11.7152L69.827 11.7347ZM60.1968 11.5639L60.0849 11.5402C60.1193 11.3697 60.1632 11.1993 60.2148 11.0334L60.3233 11.0685C60.273 11.2314 60.2308 11.3967 60.1968 11.5639ZM69.5576 10.7505C69.4961 10.5918 69.4267 10.4363 69.3498 10.2847L69.4508 10.2312C69.5295 10.3859 69.6011 10.5462 69.6635 10.7078L69.5576 10.7505ZM60.5 10.5898L60.3957 10.5434C60.4637 10.3839 60.5406 10.2262 60.6246 10.0746L60.724 10.1316C60.6415 10.2802 60.5667 10.4332 60.5 10.5898ZM69.0961 9.84299C69.0041 9.70042 68.9051 9.56258 68.7997 9.42999L68.888 9.35664C68.996 9.49202 69.0972 9.63294 69.1912 9.77885L69.0961 9.84299ZM60.9923 9.69912L60.8991 9.63197C60.9976 9.49023 61.1043 9.35203 61.2169 9.22074L61.3026 9.29693C61.1927 9.4257 61.0891 9.55993 60.9923 9.69912ZM68.4633 9.0503C68.3449 8.92962 68.2205 8.81513 68.0907 8.70728L68.1627 8.61746C68.2951 8.72713 68.4231 8.84566 68.5439 8.96827L68.4633 9.0503ZM61.652 8.92911L61.5742 8.84442C61.6994 8.72521 61.8305 8.61255 61.9669 8.5069L62.0357 8.59921C61.9023 8.70232 61.7742 8.81243 61.652 8.92911ZM67.6859 8.40431C67.546 8.31056 67.4015 8.2241 67.253 8.14528L67.3055 8.04252C67.457 8.1226 67.6059 8.21154 67.7488 8.3074L67.6859 8.40431ZM62.4503 8.31112L62.3912 8.2119C62.5368 8.12154 62.6887 8.03773 62.8432 7.96314L62.892 8.06803C62.7408 8.14138 62.5934 8.22252 62.4503 8.31112ZM66.796 7.93302C66.6402 7.87045 66.4813 7.81598 66.3201 7.76984L66.3506 7.65804C66.515 7.70482 66.6789 7.76098 66.8374 7.82512L66.796 7.93302ZM63.3556 7.87189L63.3176 7.76275C63.479 7.7044 63.6432 7.65455 63.8097 7.61339L63.8366 7.72643C63.6747 7.76612 63.5129 7.81502 63.3556 7.87189ZM65.8307 7.65751C65.6657 7.62881 65.4994 7.60859 65.3324 7.59691L65.3402 7.48086C65.5108 7.49273 65.6822 7.51329 65.8502 7.54288L65.8307 7.65751ZM64.3299 7.63093L64.3146 7.51577C64.483 7.49273 64.6552 7.47785 64.8262 7.472L64.8299 7.58806C64.6632 7.5939 64.4947 7.60808 64.3299 7.63093ZM54.2458 10.7172C54.0748 10.7172 53.9023 10.708 53.7329 10.6903L53.7445 10.5746C53.9101 10.5919 54.0785 10.6008 54.2458 10.6008V10.7172ZM54.7586 10.6911L54.747 10.5754C54.9136 10.5584 55.0792 10.5326 55.2432 10.4982L55.266 10.6121C55.0997 10.6472 54.9287 10.6738 54.7586 10.6911ZM53.2255 10.61C53.0583 10.5746 52.891 10.5299 52.7283 10.4771L52.7627 10.3667C52.9217 10.4181 53.0853 10.462 53.2482 10.4966L53.2255 10.61ZM55.7635 10.4807L55.7293 10.3696C55.8889 10.3182 56.0459 10.2583 56.1995 10.1903L56.245 10.2971C56.0876 10.3664 55.9269 10.4277 55.7635 10.4807ZM52.2474 10.2932C52.091 10.2236 51.9367 10.1451 51.7876 10.0595L51.8435 9.95833C51.9888 10.0418 52.1401 10.119 52.2925 10.1869L52.2474 10.2932ZM56.7048 10.0641L56.6488 9.96294C56.7943 9.87967 56.9369 9.78789 57.0732 9.68955L57.139 9.78452C56.999 9.88516 56.8541 9.97848 56.7048 10.0641ZM51.3539 9.77885C51.2141 9.67784 51.0794 9.56975 50.9502 9.45497L51.0251 9.36762C51.1512 9.47986 51.2827 9.58559 51.4192 9.68442L51.3539 9.77885ZM57.543 9.46135L57.468 9.37347C57.5943 9.2614 57.7149 9.14283 57.8294 9.01823L57.9126 9.09761C57.7955 9.22515 57.6722 9.34656 57.543 9.46135ZM50.5818 9.09052C50.465 8.96263 50.3547 8.82881 50.2511 8.68957L50.3422 8.61958C50.4433 8.75561 50.5512 8.8863 50.6654 9.01114L50.5818 9.09052ZM58.2442 8.69772L58.1535 8.6272C58.2548 8.49126 58.3492 8.35016 58.4365 8.20446L58.5338 8.2647C58.4452 8.41335 58.3476 8.55881 58.2442 8.69772ZM49.9622 8.25672C49.8734 8.10744 49.792 7.95369 49.7184 7.79606L49.8216 7.74645C49.8935 7.9005 49.9731 8.05071 50.06 8.19648L49.9622 8.25672ZM58.7788 7.80492L58.6761 7.75478C58.7483 7.60117 58.8127 7.44206 58.8687 7.28225L58.9759 7.32105C58.9182 7.48562 58.8525 7.64712 58.7788 7.80492ZM49.5219 7.31219C49.4646 7.14752 49.4158 6.97992 49.3757 6.81007L49.4862 6.78279C49.5255 6.94809 49.5736 7.11304 49.6291 7.27339L49.5219 7.31219ZM59.1232 6.81946L59.0124 6.792C59.0516 6.62722 59.0831 6.45784 59.1059 6.28952L59.2188 6.30512C59.1957 6.47733 59.1634 6.65061 59.1232 6.81946ZM49.281 6.29555C49.2581 6.12253 49.2438 5.94844 49.2383 5.77394L49.3521 5.77022C49.3575 5.94066 49.3716 6.11199 49.394 6.28031L49.281 6.29555ZM59.2622 5.78333L59.1484 5.77943C59.1541 5.60884 59.1514 5.43806 59.1403 5.26774L59.2541 5.26012C59.2654 5.43428 59.2681 5.6089 59.2622 5.78333ZM49.3497 5.60562H49.2358C49.2358 5.4311 49.2445 5.25552 49.2619 5.08295L49.3754 5.09482C49.3583 5.26314 49.3497 5.43518 49.3497 5.60562ZM59.0814 4.75978C59.0531 4.59163 59.0165 4.42505 58.9717 4.26067L59.0814 4.22949C59.1274 4.39692 59.1651 4.5686 59.1936 4.74046L59.0814 4.75978ZM49.4511 4.58898L49.3392 4.56524C49.3739 4.39415 49.4173 4.22501 49.4692 4.05851L49.5778 4.09359C49.5274 4.25643 49.4851 4.42177 49.4511 4.58898ZM58.812 3.77556C58.7512 3.61787 58.6808 3.46071 58.6042 3.30976L58.7052 3.25625C58.784 3.4113 58.855 3.57038 58.9178 3.73286L58.812 3.77556ZM49.7545 3.61486L49.6501 3.56844C49.718 3.40898 49.795 3.25129 49.8791 3.09963L49.9783 3.15668C49.8958 3.30525 49.8211 3.45819 49.7545 3.61486ZM58.3505 2.86806C58.2584 2.72549 58.1595 2.58765 58.0541 2.45506L58.1423 2.3817C58.2504 2.51712 58.3517 2.65804 58.4457 2.80392L58.3505 2.86806ZM50.2466 2.72419L50.1535 2.65704C50.252 2.5153 50.3587 2.3771 50.4713 2.24581L50.557 2.322C50.4471 2.45077 50.3435 2.585 50.2466 2.72419ZM57.7177 2.07536C57.5992 1.95468 57.4749 1.84019 57.3451 1.73235L57.417 1.64252C57.5496 1.75219 57.6775 1.87073 57.7983 1.99333L57.7177 2.07536ZM50.9064 1.95418L50.8286 1.86948C50.9538 1.75027 51.0849 1.63762 51.2213 1.53196L51.2901 1.62427C51.1567 1.72738 51.0286 1.8375 50.9064 1.95418ZM56.9402 1.42938C56.8004 1.33558 56.6559 1.24913 56.5074 1.17034L56.5599 1.06758C56.7114 1.14766 56.8605 1.23661 57.0031 1.33246L56.9402 1.42938ZM51.7049 1.33618L51.6456 1.23696C51.7912 1.14678 51.9433 1.0628 52.0976 0.988205L52.1464 1.09327C51.9957 1.16609 51.8472 1.24795 51.7049 1.33618ZM56.0504 0.958263C55.8945 0.895624 55.7357 0.841101 55.5744 0.794905L55.605 0.683284C55.7694 0.729881 55.9333 0.786046 56.0917 0.850184L56.0504 0.958263ZM52.61 0.896959L52.572 0.787818C52.7334 0.729465 52.8976 0.679612 53.0641 0.638458L53.091 0.751497C52.9292 0.791184 52.7673 0.840085 52.61 0.896959ZM55.0851 0.682575C54.9201 0.653893 54.7538 0.63367 54.5868 0.62198L54.5947 0.505929C54.7652 0.5178 54.9365 0.538353 55.1046 0.567941L55.0851 0.682575ZM53.5843 0.655998L53.569 0.540833C53.7387 0.517563 53.9095 0.502958 54.0806 0.49707L54.0844 0.613121C53.9176 0.618968 53.749 0.633142 53.5843 0.655998Z" fill="#2D6BD4"/>
        </g>
        <path d="M7.36357 57.6138L1.3374 47.9986L13.5063 40.0752L7.36357 57.6138Z" fill="#2D6BD4"/>
        <path d="M6.82104 53.0427L4.09814 48.6976L9.59711 45.1172L6.82104 53.0427Z" fill="#EBF3FA"/>
        <path d="M2.23927 47.6565L2.18506 47.6915L2.62538 48.3942L2.67942 48.359L2.23927 47.6565ZM2.55674 47.4497L2.5027 47.485L2.76161 47.8981L2.81548 47.8629L2.55674 47.4497ZM2.82347 47.2762L2.76943 47.3115L3.02834 47.7247L3.08238 47.6894L2.82347 47.2762ZM3.07665 47.1113L3.02278 47.1464L3.28169 47.5595L3.33556 47.5245L3.07665 47.1113ZM3.31088 46.9586L3.25684 46.9936L3.51575 47.4068L3.56979 47.3717L3.31088 46.9586ZM3.56788 46.7842L3.51384 46.8195L3.77275 47.2325L3.82662 47.1974L3.56788 46.7842ZM3.83339 46.6184L3.77935 46.6536L4.21932 47.3558L4.27337 47.3207L3.83339 46.6184ZM4.15086 46.4044L4.09699 46.4394L4.3559 46.8526L4.40977 46.8175L4.15086 46.4044ZM4.41342 46.2336L4.35955 46.2688L4.61846 46.682L4.67233 46.6467L4.41342 46.2336ZM4.66903 46.067L4.61516 46.1023L4.87407 46.5153L4.92828 46.48L4.66903 46.067ZM4.90413 45.9157L4.85009 45.9508L5.109 46.364L5.16287 46.3289L4.90413 45.9157ZM5.16652 45.7509L5.11265 45.7862L5.37156 46.1994L5.42543 46.1641L5.16652 45.7509ZM5.52604 45.5089L5.47199 45.5442L5.91232 46.2461L5.96636 46.2109L5.52604 45.5089ZM5.84576 45.3082L5.79155 45.3432L6.05046 45.7564L6.10467 45.7212L5.84576 45.3082ZM6.1144 45.1313L6.06019 45.1664L6.3191 45.5796L6.37314 45.5443L6.1144 45.1313ZM6.36567 44.9696L6.3118 45.0048L6.57054 45.418L6.62458 45.3827L6.36567 44.9696ZM6.60008 44.8174L6.54621 44.8525L6.80512 45.2656L6.85899 45.2304L6.60008 44.8174ZM6.85881 44.6411L6.80477 44.6763L7.06368 45.0892L7.1179 45.0541L6.85881 44.6411ZM7.12224 44.4768L7.06837 44.5121L7.50852 45.2146L7.56256 45.1795L7.12224 44.4768ZM7.43988 44.2703L7.38601 44.3053L7.64493 44.7185L7.69879 44.6834L7.43988 44.2703ZM7.70227 44.0924L7.64823 44.1276L7.90714 44.5406L7.96118 44.5055L7.70227 44.0924ZM7.96083 43.9301L7.90679 43.9653L8.1657 44.3785L8.21957 44.3432L7.96083 43.9301ZM8.19263 43.7743L8.13876 43.8094L8.39768 44.2226L8.45154 44.1875L8.19263 43.7743ZM8.45554 43.6094L8.4015 43.6446L8.66041 44.0578L8.71445 44.0226L8.45554 43.6094ZM8.78934 43.3891L8.7353 43.4244L9.17527 44.1266L9.22931 44.0913L8.78934 43.3891ZM9.10507 43.1859L9.0512 43.2212L9.31011 43.6344L9.36398 43.5991L9.10507 43.1859ZM9.37215 43.0121L9.31793 43.0472L9.57684 43.4604L9.63089 43.4253L9.37215 43.0121ZM9.62324 42.8454L9.5692 42.8807L9.82828 43.2937L9.88232 43.2584L9.62324 42.8454ZM9.85973 42.6946L9.80569 42.7299L10.0646 43.1431L10.1186 43.1078L9.85973 42.6946ZM10.1162 42.521L10.0622 42.5561L10.3211 42.9692L10.3751 42.934L10.1162 42.521ZM10.3822 42.3546L10.328 42.3899L10.7682 43.092L10.8222 43.0569L10.3822 42.3546ZM10.6994 42.1477L10.6453 42.1827L10.9042 42.5959L10.9583 42.5608L10.6994 42.1477ZM10.9618 41.9703L10.9077 42.0056L11.1666 42.4187L11.2207 42.3835L10.9618 41.9703ZM11.2151 41.8055L11.1611 41.8406L11.42 42.2538L11.474 42.2185L11.2151 41.8055ZM11.4506 41.6576L11.3965 41.6927L11.6556 42.1059L11.7096 42.0706L11.4506 41.6576ZM11.7112 41.481L11.6572 41.5162L11.9161 41.9294L11.9701 41.8941L11.7112 41.481ZM12.0766 41.251L12.0226 41.2862L12.4626 41.9884L12.5166 41.9533L12.0766 41.251Z" fill="#060633"/>
        <path d="M69.5991 48.4909C69.5991 48.4909 69.6707 44.9082 73.1855 44.4698C76.7004 44.0311 83.407 44.2872 83.407 44.2872V46.3518C83.407 46.3518 75.794 46.2818 73.2576 46.3518C72.203 46.381 70.926 46.4801 69.5991 48.4909Z" fill="#FFD850"/>
        <path d="M75.2654 45.9558C75.2654 45.9558 74.9785 56.6298 73.4004 57.5073C71.8226 58.3849 69.7183 57.3125 70.9136 55.2654C72.1089 53.2184 72.8262 53.121 73.2567 50.7326C73.6872 48.3445 73.6872 45.9561 73.6872 45.9561H75.2654V45.9558ZM78.4215 45.9558C78.4215 45.9558 77.3217 53.267 77.7042 55.265C78.0866 57.2636 79.8561 58.2869 81.6255 57.2145C83.395 56.142 82.8688 54.5823 82.8688 54.5823C82.8688 54.5823 81.4267 55.7522 80.2827 54.8747C79.1391 53.9976 79.7127 45.5654 79.7127 45.5654L78.4215 45.9558Z" fill="#FFD850"/>
        <path d="M6.16568 36.883C4.46244 36.883 2.86102 36.2071 1.657 34.9794C0.452464 33.7518 -0.210449 32.12 -0.210449 30.3838C-0.210449 28.6478 0.452464 27.0155 1.657 25.7884C2.86154 24.5607 4.46244 23.8848 6.16568 23.8848C7.86893 23.8848 9.47034 24.5607 10.6744 25.7884C11.8789 27.016 12.5418 28.6478 12.5418 30.3838C12.5418 32.12 11.8789 33.7523 10.6744 34.9794C9.46982 36.2071 7.86893 36.883 6.16568 36.883ZM6.16568 24.0054C4.49441 24.0054 2.92271 24.669 1.74093 25.8736C0.558982 27.0784 -0.0917674 28.6799 -0.0917674 30.3838C-0.0917674 32.0875 0.559329 33.6894 1.74093 34.8942C2.92305 36.0987 4.49441 36.7624 6.16568 36.7624C7.83695 36.7624 9.40866 36.0987 10.5908 34.8942C11.7724 33.6894 12.4235 32.0879 12.4235 30.3838C12.4235 28.6802 11.7724 27.0784 10.5908 25.8736C9.40866 24.669 7.83695 24.0054 6.16568 24.0054Z" fill="#2D6BD4"/>
        <path d="M6.16549 32.4247H6.08904L6.08939 32.3572C6.18791 32.3577 6.28643 32.3572 6.38444 32.3559L6.38531 32.4234C6.31163 32.4243 6.23882 32.4247 6.16549 32.4247ZM5.79259 32.4213C5.69393 32.4197 5.59529 32.4171 5.49667 32.4137L5.49876 32.3462C5.59607 32.3495 5.69529 32.3522 5.79381 32.3538L5.79259 32.4213ZM6.68053 32.4179L6.6788 32.3504C6.7768 32.348 6.87619 32.3446 6.9735 32.3407L6.97593 32.4082C6.87863 32.4121 6.77888 32.4155 6.68053 32.4179ZM5.2011 32.4015C5.10257 32.3969 5.00336 32.391 4.9057 32.385L4.9097 32.3175C5.007 32.3239 5.1064 32.3293 5.2044 32.334L5.2011 32.4015ZM7.27186 32.3938L7.26821 32.3263C7.36673 32.321 7.4656 32.3146 7.56256 32.3074L7.56708 32.3749C7.47012 32.3821 7.37073 32.3883 7.27186 32.3938ZM4.61012 32.3635C4.5116 32.3556 4.41221 32.3467 4.31507 32.3373L4.32115 32.2703C4.41759 32.2796 4.51647 32.2884 4.61499 32.2964L4.61012 32.3635ZM7.86266 32.3513L7.85675 32.2842C7.95493 32.2753 8.0538 32.2661 8.15024 32.256L8.15684 32.323C8.05882 32.3334 7.96086 32.3428 7.86266 32.3513ZM4.02071 32.3061C3.92254 32.2948 3.82366 32.2826 3.72688 32.2698L3.73557 32.2028C3.83201 32.2154 3.93053 32.2276 4.02819 32.2392L4.02071 32.3061ZM8.45155 32.2893L8.44373 32.2222C8.54139 32.2102 8.63893 32.1973 8.73635 32.1834L8.74538 32.25C8.64894 32.264 8.55007 32.2771 8.45155 32.2893ZM3.43321 32.2282C3.33556 32.2134 3.23807 32.1976 3.14077 32.1805L3.15189 32.1137C3.24711 32.1302 3.34529 32.1463 3.44329 32.161L3.43339 32.2282H3.43321ZM9.03852 32.2057L9.0281 32.1391C9.12575 32.1231 9.22341 32.1061 9.31863 32.0889L9.33028 32.1555C9.2347 32.1733 9.1367 32.1901 9.03852 32.2057ZM2.84936 32.1268C2.75241 32.1079 2.65568 32.0878 2.55918 32.0666L2.57325 32.0007C2.66761 32.0214 2.76439 32.0416 2.86222 32.0606L2.84936 32.1268ZM9.62133 32.0987L9.60795 32.0324C9.70526 32.0122 9.80205 31.9909 9.89605 31.9691L9.911 32.0349C9.81664 32.0569 9.71934 32.0783 9.62133 32.0987ZM2.27021 31.9986C2.17432 31.9746 2.07875 31.9495 1.98349 31.9231L2.00087 31.8581C2.09279 31.8839 2.18871 31.9093 2.28602 31.9332L2.27021 31.9986ZM10.1991 31.9631L10.1826 31.8977C10.2776 31.8728 10.3723 31.8464 10.4665 31.8185L10.4851 31.8834C10.3902 31.9116 10.2949 31.9382 10.1991 31.9631ZM1.69817 31.8382C1.60365 31.8084 1.50968 31.7768 1.41633 31.7434L1.43839 31.6796C1.52771 31.7117 1.62172 31.7434 1.71763 31.7737L1.69817 31.8382ZM10.7685 31.7939L10.7478 31.73C10.841 31.6988 10.9334 31.6656 11.0252 31.6304L11.0485 31.6936C10.9558 31.7289 10.8625 31.7623 10.7685 31.7939ZM1.13865 31.6362C1.04675 31.5983 0.955953 31.5576 0.86636 31.5143L0.894857 31.453C0.979307 31.494 1.07001 31.5345 1.16385 31.5733L1.13865 31.6362ZM11.3241 31.5797L11.2976 31.5177C11.3908 31.4759 11.4801 31.4328 11.5625 31.3894L11.5927 31.4493C11.5091 31.4936 11.4184 31.5375 11.3241 31.5797ZM0.602237 31.3742C0.511184 31.321 0.426387 31.2663 0.350278 31.2105L0.388506 31.1557C0.462704 31.2098 0.54559 31.2636 0.634905 31.3155L0.602237 31.3742ZM11.8518 31.2991L11.8162 31.2422C11.9036 31.186 11.983 31.1279 12.053 31.0696L12.0952 31.1219C12.0176 31.1858 11.9363 31.2449 11.8518 31.2991ZM0.119692 31.0152C0.0468159 30.9437 -0.0170416 30.8631 -0.0704072 30.7755L-0.0135854 30.7406C0.0315934 30.8164 0.0918894 30.8928 0.165913 30.967L0.119692 31.0152ZM12.3096 30.9064L12.2587 30.8634C12.3241 30.7822 12.3732 30.6997 12.4052 30.6169L12.4669 30.6414C12.4284 30.7376 12.3754 30.827 12.3096 30.9064ZM-0.177099 30.4844C-0.182068 30.451 -0.184565 30.4173 -0.18457 30.3836C-0.18457 30.2819 -0.161981 30.1798 -0.116281 30.0803L-0.056332 30.1086C-0.0963613 30.1946 -0.11753 30.2884 -0.118366 30.3836C-0.118366 30.4135 -0.116281 30.4444 -0.111763 30.4743L-0.177099 30.4844ZM12.4478 30.3384C12.4398 30.2432 12.4123 30.1509 12.3672 30.0672L12.4255 30.0356C12.4768 30.1331 12.5065 30.2335 12.514 30.3334L12.4478 30.3384ZM0.102316 29.8689L0.0526184 29.8242C0.119922 29.7482 0.193778 29.6785 0.2733 29.6159L0.314135 29.669C0.232118 29.7344 0.161048 29.8019 0.102141 29.8689H0.102316ZM12.197 29.8343C12.1298 29.7637 12.057 29.6988 11.9793 29.6403L12.0189 29.5863C12.1051 29.6517 12.1809 29.7195 12.245 29.7879L12.197 29.8343ZM0.553757 29.5011L0.519525 29.4433C0.599804 29.3935 0.687556 29.3441 0.780694 29.2964L0.810407 29.3568C0.719007 29.4036 0.632472 29.4522 0.553757 29.5011ZM11.7362 29.4761C11.6519 29.4259 11.5658 29.3789 11.478 29.3352L11.507 29.2745C11.5965 29.3187 11.6841 29.3665 11.7698 29.418L11.7362 29.4761ZM1.07662 29.2314L1.05055 29.1694C1.1416 29.13 1.23361 29.0929 1.32649 29.0581L1.34943 29.1214C1.2549 29.1568 1.16315 29.1938 1.07662 29.2314ZM11.2106 29.2124C11.1237 29.1758 11.0314 29.1391 10.9366 29.1045L10.959 29.0408C11.0551 29.0762 11.1482 29.1129 11.236 29.1501L11.2106 29.2124ZM1.62797 29.0234L1.60764 28.9594C1.69904 28.9293 1.79479 28.8994 1.89157 28.8716L1.90982 28.9366C1.81338 28.964 1.71868 28.9935 1.62797 29.0234ZM10.6577 29.0083C10.5641 28.978 10.47 28.9494 10.3755 28.9226L10.3932 28.8577C10.4905 28.8856 10.5861 28.9143 10.6775 28.9437L10.6577 29.0083ZM2.1941 28.8581L2.17794 28.7927C2.27194 28.7686 2.36873 28.7451 2.46639 28.7227L2.48098 28.7885C2.38368 28.8104 2.28706 28.834 2.1941 28.8581ZM10.0907 28.8462C9.99537 28.8221 9.89973 28.7993 9.80378 28.778L9.81786 28.7121C9.91429 28.7338 10.0104 28.7567 10.1063 28.7808L10.0907 28.8462ZM2.76909 28.7261L2.75623 28.6598C2.85093 28.6403 2.94911 28.6219 3.04711 28.6042L3.05875 28.6708C2.96075 28.688 2.86344 28.7066 2.76909 28.7261ZM9.51534 28.7167C9.41891 28.6975 9.32229 28.6794 9.22549 28.6623L9.23679 28.5957C9.33479 28.6131 9.43297 28.6315 9.52819 28.6506L9.51534 28.7167ZM3.34929 28.6214L3.33886 28.5548C3.43643 28.5393 3.53415 28.5248 3.632 28.5114L3.64121 28.5783C3.54338 28.5914 3.44538 28.6063 3.34929 28.6214ZM8.93409 28.6138C8.83852 28.5991 8.74052 28.5847 8.64234 28.5712L8.65103 28.5041C8.74955 28.5176 8.84842 28.5319 8.94417 28.5468L8.93409 28.6138ZM3.93383 28.5401L3.92584 28.4729C4.02315 28.461 4.12219 28.4501 4.2202 28.44L4.2268 28.5071C4.12949 28.5172 4.03062 28.5282 3.93383 28.5401ZM8.34972 28.5346C8.25199 28.5231 8.15416 28.5125 8.05623 28.5029L8.06283 28.4359C8.16101 28.4454 8.2604 28.4564 8.35719 28.4679L8.34972 28.5346ZM4.52064 28.4796L4.51542 28.4121C4.61273 28.4038 4.71178 28.3962 4.81048 28.3895L4.81499 28.457C4.71682 28.4637 4.61794 28.4713 4.52064 28.4796ZM7.76239 28.4759C7.66434 28.4677 7.56622 28.4603 7.46804 28.454L7.47221 28.3864C7.57073 28.3932 7.67012 28.4004 7.76743 28.4084L7.76239 28.4759ZM5.10935 28.4387L5.10588 28.3712C5.20319 28.3663 5.30293 28.3615 5.40145 28.3577L5.40388 28.4252C5.30553 28.429 5.20649 28.4338 5.10935 28.4387ZM7.17368 28.4362C7.07654 28.4311 6.97732 28.427 6.87915 28.4235L6.88158 28.356C6.9801 28.3595 7.07985 28.3641 7.1775 28.3687L7.17368 28.4362ZM5.69911 28.4164L5.69737 28.3489C5.79503 28.3468 5.89494 28.3452 5.99329 28.3443L5.99381 28.4118C5.89564 28.4127 5.79676 28.4139 5.69911 28.4164ZM6.58409 28.4152C6.4857 28.413 6.38729 28.4117 6.28887 28.4113L6.28922 28.3438C6.38826 28.3443 6.48766 28.3459 6.58531 28.3476L6.58409 28.4152Z" fill="#2D6BD4"/>
        <path d="M6.14937 36.8577C6.04302 36.8549 5.93827 36.8307 5.84111 36.7865L5.86891 36.7224C5.9579 36.7627 6.05376 36.7849 6.1511 36.7877L6.14937 36.8577ZM6.46075 36.7991L6.43556 36.7341C6.52695 36.696 6.61241 36.6445 6.68925 36.5813L6.73183 36.6363C6.64961 36.7035 6.55832 36.7584 6.46075 36.7991ZM5.57455 36.6161C5.49467 36.5478 5.42099 36.4724 5.35439 36.3907L5.40704 36.3455C5.47603 36.4291 5.54727 36.5016 5.61851 36.562L5.57455 36.6161ZM6.95668 36.4151L6.9049 36.3693C6.96658 36.2966 7.02827 36.2144 7.08735 36.124L7.14469 36.1628C7.08705 36.2507 7.02426 36.335 6.95668 36.4151ZM5.16985 36.1363C5.11347 36.0481 5.06083 35.9575 5.01208 35.8647L5.07255 35.8313C5.12259 35.9261 5.17472 36.0161 5.2272 36.0975L5.16985 36.1363ZM7.30438 35.8925L7.24391 35.8586C7.29242 35.7678 7.33797 35.6754 7.38049 35.5815L7.44305 35.6111C7.40007 35.7065 7.35382 35.8004 7.30438 35.8925ZM4.87515 35.5824C4.83258 35.4869 4.79254 35.3902 4.75508 35.2925L4.81937 35.2669C4.85725 35.3659 4.89756 35.4625 4.93805 35.5532L4.87515 35.5824ZM7.56468 35.3221L7.50091 35.2959C7.5374 35.2027 7.57337 35.1047 7.60725 35.0045L7.67224 35.0277C7.63749 35.1288 7.60169 35.2281 7.56468 35.3221ZM4.64873 34.9975C4.61541 34.8985 4.58395 34.7988 4.55438 34.6985L4.62006 34.6783C4.6503 34.7794 4.68175 34.8795 4.71372 34.9749L4.64873 34.9975ZM7.76781 34.7289L7.70213 34.7082C7.73097 34.6111 7.75947 34.5108 7.78658 34.4086L7.85261 34.4269C7.82606 34.528 7.79785 34.6287 7.76799 34.7289H7.76781ZM4.47028 34.3969C4.44406 34.2958 4.4191 34.1944 4.39538 34.0927L4.46246 34.0766C4.48609 34.1792 4.51128 34.2809 4.537 34.3792L4.47028 34.3969ZM7.92889 34.123L7.86182 34.1065C7.8851 34.0075 7.90787 33.9054 7.92889 33.8025L7.99631 33.8168C7.97506 33.9192 7.95259 34.0212 7.92889 34.123ZM4.32848 33.7864C4.30743 33.6841 4.28762 33.5816 4.26906 33.4788L4.33665 33.4662C4.35524 33.5691 4.37505 33.6721 4.39538 33.772L4.32848 33.7864ZM8.05644 33.5096L7.98884 33.497C8.00709 33.3966 8.02498 33.2933 8.04149 33.1898L8.10926 33.2013C8.09241 33.3046 8.07451 33.4088 8.05644 33.5096ZM4.21693 33.1696C4.20056 33.0664 4.18539 32.9631 4.1714 32.8596L4.23969 32.8498C4.25377 32.9531 4.26923 33.0569 4.28522 33.1583L4.21693 33.1696ZM8.15566 32.8907L8.08737 32.881C8.10144 32.7793 8.11517 32.6756 8.12716 32.5718L8.19545 32.5801C8.18346 32.6845 8.16973 32.789 8.15566 32.8907ZM4.13178 32.549C4.11967 32.4453 4.10849 32.3415 4.09825 32.2377L4.16653 32.2306C4.17696 32.3342 4.18808 32.4389 4.20007 32.5406L4.13178 32.549ZM8.22985 32.2688L8.16156 32.2618C8.17199 32.1592 8.18137 32.055 8.19006 31.9508L8.2587 31.9567C8.24966 32.0608 8.24011 32.1659 8.22985 32.2688ZM4.06992 31.9255C4.06175 31.8225 4.05428 31.7175 4.04768 31.6129L4.11649 31.6081C4.12309 31.7123 4.13039 31.817 4.13873 31.9196L4.06992 31.9255ZM8.28163 31.6441L8.21282 31.6395C8.21943 31.5369 8.22568 31.4319 8.23055 31.3277L8.29936 31.331C8.29434 31.4355 8.28843 31.5398 8.28163 31.6441ZM4.0303 31.3002C4.02526 31.1959 4.02126 31.0915 4.01831 30.9871L4.08695 30.985C4.09043 31.0894 4.0939 31.1939 4.09911 31.2969L4.0303 31.3002ZM8.31187 31.0183L8.24306 31.0164C8.24636 30.9134 8.24879 30.8084 8.25053 30.7042L8.31917 30.7054C8.31772 30.8098 8.3154 30.9141 8.31187 31.0183ZM4.01119 30.6737C4.00997 30.5775 4.00928 30.4801 4.00928 30.3844V30.3606H4.07792V30.3844C4.07792 30.4801 4.07878 30.5772 4.08 30.6728L4.01119 30.6737ZM8.32212 30.3918H8.25349V30.3844C8.25349 30.2827 8.25262 30.1801 8.25088 30.0802L8.31969 30.0789C8.32143 30.1792 8.32212 30.2822 8.32212 30.3844V30.3918ZM4.08087 30.0485L4.01206 30.0472C4.0138 29.9434 4.01658 29.838 4.02005 29.7341L4.08869 29.7368C4.08504 29.8407 4.08243 29.9446 4.08087 30.0485ZM8.24341 29.768C8.24011 29.6645 8.23611 29.5595 8.23107 29.4562L8.29971 29.4528C8.30475 29.5566 8.30892 29.662 8.31222 29.7659L8.24341 29.768ZM4.10103 29.4246L4.03239 29.4211C4.03743 29.3168 4.04351 29.2126 4.05063 29.1085L4.11927 29.1131C4.11232 29.2161 4.10641 29.3211 4.10103 29.4246ZM8.21404 29.1443C8.20744 29.0407 8.19962 28.936 8.19145 28.833L8.26009 28.8272C8.26825 28.9301 8.27625 29.0352 8.28268 29.1397L8.21404 29.1443ZM4.14255 28.8018L4.07374 28.796C4.08243 28.6916 4.09199 28.5867 4.10276 28.4842L4.17105 28.4912C4.16063 28.5935 4.15124 28.698 4.14255 28.8018ZM8.16313 28.5221C8.15295 28.4186 8.14165 28.3152 8.12924 28.212L8.19753 28.2035C8.20952 28.3061 8.22117 28.4112 8.23142 28.515L8.16313 28.5221ZM4.20546 28.1812L4.13717 28.1729C4.14951 28.069 4.16323 27.9643 4.17766 27.8619L4.24595 27.872C4.23152 27.9732 4.21779 28.0775 4.20546 28.1812ZM8.08945 27.9028C8.07519 27.7999 8.0599 27.697 8.04358 27.5944L8.11135 27.583C8.12751 27.6847 8.14297 27.7889 8.15739 27.8931L8.08945 27.9028ZM4.29234 27.5632L4.22457 27.5519C4.24107 27.4487 4.2588 27.3458 4.27774 27.243L4.34534 27.256C4.32675 27.357 4.30885 27.4603 4.29234 27.5632ZM7.99145 27.2868C7.97304 27.1846 7.95335 27.0827 7.93237 26.981L7.99962 26.9666C8.02047 27.0671 8.04028 27.1704 8.05922 27.2742L7.99145 27.2868ZM4.40529 26.9502L4.33787 26.9355C4.35941 26.8316 4.38252 26.729 4.40563 26.6295L4.47271 26.646C4.4496 26.7452 4.42683 26.8472 4.40529 26.9502ZM7.86564 26.6768C7.842 26.5757 7.81703 26.475 7.79075 26.3747L7.8573 26.3566C7.88337 26.4553 7.90856 26.5579 7.93254 26.6608L7.86564 26.6768ZM4.54847 26.3444L4.48244 26.3258C4.50955 26.2229 4.53857 26.1217 4.56793 26.0241L4.63396 26.0448C4.60442 26.1413 4.57593 26.2423 4.54847 26.3444ZM7.7063 26.0747C7.67683 25.9754 7.64537 25.8767 7.61195 25.7787L7.67693 25.7558C7.70978 25.852 7.74157 25.9525 7.77216 26.0545L7.7063 26.0747ZM4.72918 25.7491L4.6642 25.7259C4.69895 25.6247 4.73544 25.5255 4.77228 25.4314L4.83605 25.4576C4.79956 25.5508 4.76359 25.6486 4.72918 25.7491ZM7.50647 25.4867C7.46919 25.3902 7.42933 25.2948 7.38692 25.2005L7.44948 25.1715C7.49066 25.2631 7.53132 25.3605 7.57024 25.461L7.50647 25.4867ZM4.95734 25.1724L4.89478 25.1428C4.93996 25.0441 4.98688 24.9497 5.03414 24.8618L5.09427 24.8956C5.04566 24.9863 5.0001 25.0786 4.95734 25.1724ZM7.25156 24.9231C7.20347 24.8323 7.15152 24.7438 7.09586 24.6577L7.15338 24.6189C7.20725 24.702 7.26111 24.793 7.31238 24.8898L7.25156 24.9231ZM5.25274 24.632L5.19557 24.5926C5.25726 24.5003 5.32068 24.416 5.38515 24.3416L5.43693 24.388C5.37438 24.4598 5.31286 24.5416 5.25274 24.632ZM6.91463 24.4109C6.84993 24.3329 6.77839 24.2612 6.7009 24.1965L6.74399 24.1421C6.8194 24.2041 6.8943 24.2792 6.96676 24.3653L6.91463 24.4109ZM5.65379 24.178L5.61208 24.1222C5.69503 24.0558 5.78721 24.0024 5.88559 23.9637L5.90957 24.0294C5.81754 24.0657 5.73134 24.1158 5.65379 24.178ZM6.44894 24.04C6.35924 24.0011 6.26284 23.9807 6.16535 23.9801V23.9102C6.26926 23.9102 6.3737 23.9319 6.47535 23.975L6.44894 24.04Z" fill="#2D6BD4"/>
        <path d="M12.4827 30.4068H12.4558V30.3604H12.4827V30.4068ZM12.2521 30.4068H12.049V30.3604H12.2521V30.4068ZM11.8457 30.4068H11.6426V30.3604H11.8457V30.4068ZM11.4389 30.4068H11.2356V30.3604H11.4389V30.4068ZM11.0325 30.4068H10.8292V30.3604H11.0325V30.4068ZM10.6255 30.4068H10.4224V30.3604H10.6255V30.4068ZM10.2191 30.4068H10.0158V30.3604H10.2191V30.4068ZM9.81214 30.4068H9.60901V30.3604H9.81214V30.4068ZM9.4057 30.4068H9.2024V30.3604H9.4057V30.4068ZM8.99892 30.4068H8.79561V30.3604H8.99892V30.4068ZM8.59196 30.4068H8.38866V30.3604H8.59196V30.4068ZM8.18553 30.4068H7.98222V30.3604H8.18553V30.4068ZM7.77874 30.4068H7.57544V30.3604H7.77874V30.4068ZM7.37213 30.4068H7.169V30.3604H7.37231L7.37213 30.4068ZM6.96552 30.4068H6.76222V30.3604H6.96552V30.4068ZM6.55891 30.4068H6.35561V30.3604H6.55891V30.4068ZM6.15213 30.4068H5.94882V30.3604H6.15213V30.4068ZM5.74552 30.4068H5.54221V30.3604H5.74552V30.4068ZM5.33874 30.4068H5.13543V30.3604H5.33874V30.4068ZM4.93213 30.4068H4.72899V30.3604H4.9323L4.93213 30.4068ZM4.52552 30.4068H4.32221V30.3604H4.52552V30.4068ZM4.11856 30.4068H3.91525V30.3604H4.11856V30.4068ZM3.71195 30.4068H3.50882V30.3604H3.71212L3.71195 30.4068ZM3.30534 30.4068H3.10203V30.3604H3.30534V30.4068ZM2.89873 30.4068H2.69542V30.3604H2.89873V30.4068ZM2.49195 30.4068H2.28864V30.3604H2.49195V30.4068ZM2.08534 30.4068H1.8822V30.3604H2.08551L2.08534 30.4068ZM1.67855 30.4068H1.47525V30.3604H1.67855V30.4068ZM1.27194 30.4068H1.06881V30.3604H1.27212L1.27194 30.4068ZM0.865332 30.4068H0.662026V30.3604H0.865332V30.4068ZM0.458722 30.4068H0.255416V30.3604H0.458722V30.4068ZM0.0519381 30.4068H-0.151367V30.3604H0.0519381V30.4068Z" fill="#2D6BD4"/>
        <path d="M6.18852 36.8229H6.14258V36.7954H6.1887L6.18852 36.8229ZM6.18852 36.5878H6.14258V36.3807H6.1887L6.18852 36.5878ZM6.18852 36.1735H6.14258V35.9664H6.1887L6.18852 36.1735ZM6.18852 35.7588H6.14258V35.5517H6.1887L6.18852 35.7588ZM6.18852 35.3445H6.14258V35.1374H6.1887L6.18852 35.3445ZM6.18852 34.9298H6.14258V34.7226H6.1887L6.18852 34.9298ZM6.18852 34.5155H6.14258V34.3084H6.1887L6.18852 34.5155ZM6.18852 34.1008H6.14258V33.8936H6.1887L6.18852 34.1008ZM6.18852 33.6865H6.14258V33.4794H6.1887L6.18852 33.6865ZM6.18852 33.2719H6.14258V33.0646H6.1887L6.18852 33.2719ZM6.18852 32.8575H6.14258V32.6504H6.1887L6.18852 32.8575ZM6.18852 32.4429H6.14258V32.2356H6.1887L6.18852 32.4429ZM6.18852 32.0281H6.14258V31.821H6.1887L6.18852 32.0281ZM6.18852 31.6139H6.14258V31.4066H6.1887L6.18852 31.6139ZM6.18852 31.1991H6.14258V30.992H6.1887L6.18852 31.1991ZM6.18852 30.7849H6.14258V30.5778H6.1887L6.18852 30.7849ZM6.18852 30.3701H6.14258V30.163H6.1887L6.18852 30.3701ZM6.18852 29.9559H6.14258V29.7488H6.1887L6.18852 29.9559ZM6.18852 29.5411H6.14258V29.334H6.1887L6.18852 29.5411ZM6.18852 29.1269H6.14258V28.9197H6.1887L6.18852 29.1269ZM6.18852 28.7121H6.14258V28.505H6.1887L6.18852 28.7121ZM6.18852 28.2978H6.14258V28.0907H6.1887L6.18852 28.2978ZM6.18852 27.8831H6.14258V27.676H6.1887L6.18852 27.8831ZM6.18852 27.4683H6.14258V27.2612H6.1887L6.18852 27.4683ZM6.18852 27.0541H6.14258V26.8469H6.1887L6.18852 27.0541ZM6.18852 26.6393H6.14258V26.4322H6.1887L6.18852 26.6393ZM6.18852 26.2251H6.14258V26.0179H6.1887L6.18852 26.2251ZM6.18852 25.8105H6.14258V25.6032H6.1887L6.18852 25.8105ZM6.18852 25.396H6.14258V25.1889H6.1887L6.18852 25.396ZM6.18852 24.9814H6.14258V24.7741H6.1887L6.18852 24.9814ZM6.18852 24.567H6.14258V24.3599H6.1887L6.18852 24.567ZM6.18852 24.1524H6.14258V23.9453H6.1887L6.18852 24.1524Z" fill="#2D6BD4"/>
        <path opacity="0.5" d="M73.2339 25.3278L67.5957 23.7082L67.6901 21.7582L76.0886 16.0986L78.2319 16.7141L76.2384 23.9233L77.7881 24.3684L77.2073 26.469L75.6577 26.0239L74.9562 28.5616L72.5327 27.8655L73.2339 25.3278ZM73.8146 23.2272L74.8275 19.564L70.748 22.3464L73.8146 23.2272Z" fill="#2D6BD4"/>
        <path d="M25.1252 18.312L25.867 15.7187C27.1082 16.1411 28.1857 16.2293 29.2245 15.7644C30.4311 15.2244 30.9274 14.2891 30.4563 13.1959C30.0148 12.1711 28.9025 11.956 27.6794 12.5036C26.9422 12.8335 26.3603 13.3385 25.9104 13.8254L23.9849 13.4852L21.7812 7.44328L28.9866 4.21777L29.9798 6.52338L24.9865 8.75847L25.7427 10.8853C26.1603 10.5558 26.5424 10.2829 27.1959 9.99056C29.4749 8.97037 31.787 9.28008 32.9642 12.0129C34.0532 14.5408 32.9856 16.9338 30.2879 18.1412C28.4113 18.9804 26.7431 18.912 25.1252 18.312Z" fill="#FF8550"/>
        <path d="M25.6338 51.5359L30.6462 45.7548C33.0829 48.2883 35.2348 49.5864 38.3511 49.9637C42.8937 50.5138 45.7311 47.3083 46.8494 42.3116C44.8713 43.6553 42.27 44.3778 39.0477 43.9876C31.0191 43.0157 26.3699 37.8665 27.2733 30.1134C28.1579 22.5221 34.5681 17.6203 42.9137 18.6306C47.8788 19.2319 50.6396 20.8219 53.1064 24.0143C55.4338 27.0261 56.7 31.329 55.8216 38.8663C54.3974 51.0875 47.7728 58.7481 37.2618 57.4756C31.8739 56.8231 28.4427 54.5511 25.6338 51.5359ZM48.1751 32.3166C48.5643 28.9786 46.4169 26.2618 42.3498 25.7694C38.3353 25.2834 35.7883 27.3771 35.3867 30.8227C34.9976 34.1607 37.1579 36.77 41.1719 37.256C45.186 37.742 47.786 35.6545 48.1751 32.3166Z" fill="#2D6BD4"/>
        <path d="M23.2575 54.167H11.3428V49.5527H23.2973C24.2632 49.5527 25.0467 50.3509 25.0467 51.336V52.3431C25.0467 53.3505 24.2455 54.167 23.2575 54.167Z" fill="#FCECDB"/>
        <path d="M35.2673 51.4506V52.1446C35.2673 52.5154 35.1757 52.863 35.016 53.1614C34.6949 53.7622 34.098 54.1658 33.4143 54.1658H10.9755C10.8269 54.1658 10.707 54.0347 10.707 53.8731V53.7693C10.707 53.6077 10.8275 53.4761 10.9755 53.4761H24.6539C24.7273 53.3786 24.7914 53.2735 24.8459 53.1614C24.9785 52.887 25.0471 52.5851 25.0463 52.2792V51.3967C25.0463 51.2342 25.0273 51.0769 24.9909 50.927C24.9313 50.6792 24.8235 50.4462 24.6737 50.2419H10.9755C10.8269 50.2419 10.707 50.1108 10.707 49.9488V49.845C10.707 49.6829 10.8275 49.5518 10.9755 49.5518H33.5272C34.3219 49.5518 34.9921 50.1331 35.2002 50.927C35.2442 51.0937 35.2673 51.2693 35.2673 51.4506Z" fill="#699DEE"/>
        <path d="M35.2002 50.9282H24.9912C24.9319 50.6803 24.8241 50.4473 24.6743 50.243H10.9755C10.8269 50.243 10.707 50.1117 10.707 49.9498V49.846C10.707 49.684 10.8275 49.5527 10.9755 49.5527H33.5272C34.3219 49.5527 34.9924 50.1342 35.2002 50.9282Z" fill="#548EE2"/>
        <path d="M11.3428 51.8594L13.0043 51.937L11.3428 51.9834V51.8594ZM11.3428 52.5833L15.2952 52.6609L11.3428 52.7073V52.5833Z" fill="#F4D2B8"/>
        <path d="M15.3458 57.7463H27.0421V54.1572H15.2427C14.3666 54.1572 13.6562 54.8812 13.6562 55.7743V56.0236C13.6562 56.9754 14.4128 57.7463 15.3458 57.7463Z" fill="#505ABA"/>
        <path d="M26.4789 57.7463H39.8091V54.1572H26.442C25.5508 54.1572 24.8286 54.8934 24.8286 55.8018V56.0645C24.829 56.9937 25.5678 57.7463 26.4789 57.7463Z" fill="#FCECDB"/>
        <path d="M23.9481 57.7458H40.2589C40.3239 57.7458 40.3862 57.7194 40.4322 57.6726C40.4781 57.6257 40.5039 57.5622 40.5039 57.496V57.4589C40.5039 57.4261 40.4976 57.3936 40.4853 57.3633C40.473 57.333 40.4549 57.3055 40.4322 57.2823C40.4094 57.2591 40.3824 57.2407 40.3527 57.2281C40.323 57.2156 40.2911 57.2091 40.2589 57.2091H23.9481C23.916 57.2091 23.8841 57.2156 23.8544 57.2281C23.8246 57.2407 23.7976 57.2591 23.7749 57.2823C23.7521 57.3055 23.7341 57.333 23.7218 57.3633C23.7095 57.3936 23.7031 57.4261 23.7031 57.4589V57.496C23.7031 57.634 23.8128 57.7458 23.9481 57.7458ZM23.9481 54.6937H40.2589C40.3239 54.6937 40.3862 54.6674 40.4321 54.6206C40.4781 54.5738 40.5039 54.5103 40.5039 54.4441V54.4069C40.5039 54.3406 40.4781 54.2771 40.4321 54.2303C40.3862 54.1835 40.3239 54.1572 40.2589 54.1572H23.9481C23.8832 54.1572 23.8209 54.1835 23.7749 54.2303C23.729 54.2771 23.7032 54.3406 23.7031 54.4069V54.4441C23.7032 54.5103 23.729 54.5738 23.7749 54.6206C23.8209 54.6674 23.8832 54.6937 23.9481 54.6937Z" fill="#505ABA"/>
        <path d="M39.8091 55.9522L37.9929 56.0124L39.8091 56.0487V55.9522ZM39.8091 55.126L35.4883 55.1864L39.8091 55.2227V55.126Z" fill="#F4D2B8"/>
        <path d="M35.5332 55.1738C35.5332 55.1738 35.7181 55.3283 35.7794 55.5813C35.7902 55.6256 35.7972 55.6733 35.7984 55.7231C35.8088 56.0597 35.7984 56.8221 35.7984 56.8221L36.3452 56.4412L36.8903 56.8221V55.789C36.8903 55.5936 36.8436 55.4038 36.7567 55.2792C36.7145 55.219 36.6635 55.1738 36.6055 55.1738H35.5332Z" fill="#F99746"/>
        <path d="M35.5332 55.1738C35.5332 55.1738 35.7181 55.3283 35.7794 55.5813L36.875 55.5966C36.875 55.5966 36.8319 55.2337 36.606 55.1738H35.5332Z" fill="#ED7D2B"/>
        <path d="M25.168 49.5622H12.5864V44.2891H25.2118C26.2765 44.2891 27.1391 45.1688 27.1391 46.2534V47.5528C27.1394 48.6627 26.257 49.5622 25.168 49.5622Z" fill="#FCECDB"/>
        <path d="M27.1467 46.3349V47.4697C27.1437 47.9545 26.9041 48.3751 26.5527 48.6C26.3773 48.7127 26.1743 48.7728 25.967 48.7734H12.2038C12.0423 48.7734 11.9117 48.9198 11.9117 49.1007V49.2344C11.9117 49.4155 12.0423 49.5619 12.2038 49.5619H35.9793C36.6615 49.5619 37.2646 49.1818 37.6289 48.5996C37.8586 48.2328 37.9931 47.7862 37.9931 47.3039V46.4086C37.9931 46.0784 37.9257 45.7653 37.8051 45.487C37.4992 44.7777 36.852 44.2891 36.1023 44.2891H12.2034C12.042 44.2891 11.9111 44.4356 11.9111 44.6161V44.7499C11.9111 44.9308 12.042 45.0771 12.2034 45.0771H26.0083C26.3383 45.0771 26.6372 45.2347 26.8457 45.4864C27.0308 45.71 27.1446 46.0075 27.1467 46.3349Z" fill="#F99746"/>
        <path d="M11.9116 49.1007V49.2344C11.9116 49.4155 12.0423 49.5619 12.2037 49.5619H35.9794C36.6615 49.5619 37.2646 49.1818 37.6288 48.5996H26.5527C26.3773 48.7123 26.1743 48.7724 25.9669 48.7729H12.2037C12.0423 48.7734 11.9116 48.9198 11.9116 49.1007Z" fill="#ED7D2B"/>
        <path d="M12.5864 46.9256L14.351 47.0142L12.5864 47.0679V46.9256ZM12.5864 45.7119L16.7839 45.8005L12.5864 45.854V45.7119Z" fill="#F4D2B8"/>
        <path d="M24.9523 45.7832C24.9523 45.7832 24.6754 45.9503 24.5836 46.2254C24.5668 46.2749 24.5571 46.3266 24.555 46.3789C24.5397 46.7442 24.555 47.5707 24.555 47.5707L23.737 47.1577L22.9214 47.5707V46.4506C22.9214 46.2389 22.9912 46.033 23.1212 45.898C23.1841 45.8326 23.2607 45.7832 23.3473 45.7832H24.9523Z" fill="#F99746"/>
        <path d="M24.9522 45.7832C24.9522 45.7832 24.6752 45.9503 24.5835 46.2254L22.9443 46.2417C22.9443 46.2417 23.0085 45.8482 23.3471 45.7832H24.9522Z" fill="#ED7D2B"/>
        <path d="M63.8252 38.6183L59.9022 39.6367L59.1406 36.5882L63.0635 35.5698L62.0698 31.593L65.1477 30.7939L66.1414 34.7707L70.0644 33.7523L70.826 36.8008L66.903 37.8192L67.8968 41.7959L64.8189 42.5948L63.8252 38.6183Z" fill="#505ABA"/>
        <path d="M2.03045 56.4951C2.03045 56.5415 2.03288 56.5879 2.03879 56.6326C2.05564 56.777 2.09961 56.9132 2.16494 57.0355C2.21586 57.1305 2.27981 57.2176 2.35487 57.2941C2.45772 57.3992 2.57994 57.4826 2.71449 57.5393C2.84904 57.5961 2.99328 57.6252 3.13889 57.6249H18.7303C19.0243 57.625 19.3062 57.506 19.5141 57.2941C19.7221 57.0822 19.839 56.7948 19.8391 56.4951C19.8393 56.3466 19.8107 56.1996 19.755 56.0624C19.6992 55.9253 19.6173 55.8007 19.5142 55.696C19.4114 55.5908 19.2892 55.5074 19.1547 55.4506C19.0201 55.3938 18.8759 55.3646 18.7303 55.3649H3.13889C2.99331 55.3648 2.84914 55.394 2.71463 55.4508C2.58012 55.5076 2.45789 55.5908 2.35494 55.6958C2.25199 55.8007 2.17033 55.9253 2.11462 56.0625C2.05891 56.1996 2.03025 56.3466 2.03027 56.4951H2.03045ZM3.21952 55.1602H8.56505C8.61016 55.1601 8.65339 55.1418 8.6853 55.1093C8.71721 55.0768 8.7352 55.0327 8.73534 54.9868C8.7352 54.9408 8.71721 54.8967 8.68529 54.8643C8.65337 54.8318 8.61014 54.8135 8.56505 54.8135H3.21952C3.17446 54.8136 3.13127 54.8318 3.09939 54.8643C3.06752 54.8968 3.04954 54.9408 3.0494 54.9868C3.0494 55.0821 3.12569 55.1602 3.21952 55.1602Z" fill="#FFD850"/>
        <path d="M3.51502 55.3648H4.09452V55.1602H3.51502V55.3648ZM2.16504 57.0354C2.21607 57.1304 2.28007 57.2175 2.35514 57.2941C2.45797 57.3992 2.58016 57.4825 2.71468 57.5393C2.8492 57.596 2.9934 57.6251 3.13899 57.6249H6.44157V57.0354H2.16504Z" fill="#EA642F"/>
        <path d="M21.903 56.1643V56.8262C21.903 57.0381 21.8205 57.2414 21.6735 57.3912C21.5266 57.5411 21.3273 57.6253 21.1195 57.6253H4.87823C4.77532 57.6253 4.67341 57.6047 4.57833 57.5645C4.48325 57.5244 4.39686 57.4655 4.3241 57.3913C4.25134 57.3171 4.19363 57.229 4.15427 57.132C4.11491 57.0351 4.09468 56.9312 4.09473 56.8262V56.1643C4.0947 56.0594 4.11496 55.9554 4.15433 55.8585C4.19371 55.7615 4.25143 55.6734 4.32421 55.5992C4.39698 55.525 4.48339 55.4662 4.57848 55.426C4.67357 55.3859 4.77548 55.3652 4.87841 55.3652H21.1195C21.2224 55.3652 21.3243 55.3859 21.4194 55.426C21.5145 55.4662 21.6009 55.525 21.6737 55.5992C21.7464 55.6734 21.8041 55.7615 21.8435 55.8585C21.8828 55.9555 21.9031 56.0594 21.903 56.1643Z" fill="#F99746"/>
        <path d="M21.8758 57.0352C21.8307 57.2044 21.7322 57.3538 21.5955 57.4604C21.4589 57.5669 21.2916 57.6246 21.1196 57.6246H4.87829C4.70625 57.6247 4.53898 57.567 4.4023 57.4604C4.26562 57.3539 4.16714 57.2045 4.12207 57.0352H21.8758Z" fill="#EF873A"/>
        <path d="M20.29 56.4993C20.29 56.8503 20.4155 57.1641 20.6125 57.3718L20.6258 57.3856C20.7785 57.5404 20.9719 57.6333 21.1821 57.6333C21.5107 57.6333 22.3257 57.1278 22.8307 56.792C23.0823 56.6246 23.2571 56.4993 23.2571 56.4993C23.2571 56.4993 23.0823 56.3739 22.8307 56.2068C22.3257 55.8707 21.5107 55.3652 21.1821 55.3652C21.0869 55.3652 20.9954 55.3842 20.9093 55.4193C20.7644 55.4788 20.6353 55.5837 20.5335 55.7217C20.4214 55.8728 20.3415 56.0635 20.3076 56.2749C20.2958 56.3491 20.29 56.4242 20.29 56.4993Z" fill="#2D6BD4"/>
        <path d="M20.5332 55.7206L23.0271 56.4146L20.9091 55.418C20.7643 55.4775 20.635 55.5831 20.5332 55.7206Z" fill="#EBF3FA"/>
        <path d="M22.6685 56.4986C22.6685 56.6336 22.7364 56.7487 22.8313 56.7913C22.9749 56.696 23.117 56.5984 23.2575 56.4986C23.2575 56.4986 23.0829 56.3731 22.8313 56.2061C22.7364 56.2484 22.6685 56.363 22.6685 56.4986Z" fill="#F99746"/>
    </g>
    <defs>
        <clipPath id="clip0_104_11739">
            <rect width="89" height="59" fill="white" transform="translate(0.0673828 0.49707)"/>
        </clipPath>
    </defs>
</svg>
