<svg width="22" height="15" viewBox="0 0 22 15" fill="none" xmlns="http://www.w3.org/2000/svg">
<path d="M10.6281 2C14.29 2 17.5557 4.13 19.1499 7.5C17.5557 10.87 14.2996 13 10.6281 13C6.95657 13 3.70051 10.87 2.1063 7.5C3.70051 4.13 6.96623 2 10.6281 2ZM10.6281 0C5.79714 0 1.67151 3.11 0 7.5C1.67151 11.89 5.79714 15 10.6281 15C15.459 15 19.5847 11.89 21.2562 7.5C19.5847 3.11 15.459 0 10.6281 0ZM10.6281 5C11.9614 5 13.0436 6.12 13.0436 7.5C13.0436 8.88 11.9614 10 10.6281 10C9.29475 10 8.21262 8.88 8.21262 7.5C8.21262 6.12 9.29475 5 10.6281 5ZM10.6281 3C8.23194 3 6.28024 5.02 6.28024 7.5C6.28024 9.98 8.23194 12 10.6281 12C13.0242 12 14.976 9.98 14.976 7.5C14.976 5.02 13.0242 3 10.6281 3Z" fill="#6A6A6A"/>
</svg>
