<svg width="34" height="32" viewBox="0 0 34 32" fill="none" xmlns="http://www.w3.org/2000/svg">
    <path d="M8.63788 17.264C13.3086 17.264 17.1422 13.4297 17.1422 8.74257C17.1422 4.08828 13.3086 0.238281 8.63788 0.238281C3.9836 0.238281 0.133597 4.08828 0.133597 8.74257C0.133597 13.4297 3.9836 17.264 8.63788 17.264ZM21.1429 5.46114H32.5772C33.2972 5.46114 33.8657 4.909 33.8657 4.189C33.8657 3.48542 33.2965 2.93328 32.5772 2.93328H21.1429C20.4229 2.93328 19.87 3.48542 19.87 4.189C19.87 4.909 20.4229 5.46114 21.1429 5.46114ZM7.6336 13.7311C7.32436 13.7269 7.02934 13.6006 6.81288 13.3797L3.5986 9.86399C3.48145 9.73042 3.39788 9.42828 3.39788 9.21114C3.39788 8.62542 3.85003 8.17328 4.41931 8.17328C4.77074 8.17328 5.02145 8.34042 5.20574 8.52471L7.58288 11.1197L12.0193 4.959C12.2036 4.69114 12.505 4.50685 12.8736 4.50685C13.4257 4.50685 13.9115 4.94257 13.9115 5.52828C13.9115 5.69542 13.8279 5.92971 13.6772 6.13114L8.48717 13.3461C8.32003 13.5804 7.98503 13.7319 7.6336 13.7319M21.1436 14.234H32.5779C33.2979 14.234 33.8665 13.6819 33.8665 12.9626C33.8665 12.259 33.2972 11.7061 32.5779 11.7061H21.1429C20.4229 11.7061 19.87 12.259 19.87 12.9619C19.87 13.6819 20.4236 14.234 21.1436 14.234ZM1.40574 23.0069H32.5772C32.7456 23.0086 32.9127 22.9771 33.0689 22.9139C33.225 22.8508 33.3671 22.7574 33.487 22.639C33.6069 22.5207 33.7021 22.3798 33.7672 22.2245C33.8324 22.0691 33.8661 21.9024 33.8665 21.734C33.8665 21.0311 33.2972 20.4783 32.5779 20.4783H1.40574C0.68574 20.4783 0.133597 21.0311 0.133597 21.734C0.133597 22.4376 0.68574 23.0069 1.40503 23.0069M1.40503 31.7619H32.5765C33.2965 31.7619 33.8657 31.2097 33.8657 30.5069C33.8657 29.8033 33.2965 29.234 32.5772 29.234H1.40574C1.23822 29.2326 1.0721 29.2645 0.91706 29.328C0.762024 29.3915 0.621183 29.4852 0.502758 29.6037C0.384334 29.7222 0.290698 29.863 0.227315 30.0181C0.163932 30.1732 0.132073 30.3393 0.133597 30.5069C0.133597 31.2097 0.68574 31.7619 1.40503 31.7619Z" fill="#32183B"/>
</svg>
