<svg width="40" height="40" viewBox="0 0 40 40" fill="none" xmlns="http://www.w3.org/2000/svg">
    <path d="M30 4.13333C28.1333 4.13333 26.5556 4.8 25.2667 6.13333C23.9778 7.46666 23.3333 9.04444 23.3333 10.8667C23.3333 12.6889 23.9778 14.2444 25.2667 15.5333C26.5556 16.8222 28.1333 17.4667 30 17.4667C31.8667 17.4667 33.4444 16.8222 34.7333 15.5333C36.0222 14.2444 36.6667 12.6889 36.6667 10.8667C36.6667 9.04444 36.0222 7.46666 34.7333 6.13333C33.4444 4.8 31.8667 4.13333 30 4.13333ZM30 15.8667C28.5778 15.8667 27.4 15.3778 26.4667 14.4C25.5333 13.4222 25.0667 12.2444 25.0667 10.8667C25.0667 9.48889 25.5333 8.31111 26.4667 7.33333C27.4 6.35555 28.5778 5.86666 30 5.86666C31.4222 5.86666 32.6 6.35555 33.5333 7.33333C34.4667 8.31111 34.9556 9.48889 35 10.8667C35.0444 12.2444 34.5778 13.4222 33.6 14.4C32.6222 15.3778 31.4222 15.8667 30 15.8667ZM31.8667 8.53333L29.2 11.3333L28.1333 10.2667L26.9333 11.4667L28.5333 13.0667C28.7111 13.2444 28.9111 13.3333 29.1333 13.3333C29.3556 13.3333 29.5556 13.2444 29.7333 13.0667L33.0667 9.73333L31.8667 8.53333ZM16.6667 21.6H28.2667V23.3333H16.6667V21.6ZM18.4 10H9.2C7.6 10 6.22222 10.5778 5.06667 11.7333C3.91111 12.8889 3.33333 14.2667 3.33333 15.8667H5.06667C5.06667 14.7111 5.46667 13.7333 6.26667 12.9333C7.06667 12.1333 8.04445 11.7333 9.2 11.7333H18.2667C18.8 11.7333 19.2222 11.8889 19.5333 12.2C19.8444 12.5111 20 12.8889 20 13.3333C20 13.7778 19.8444 14.1778 19.5333 14.5333C19.2222 14.8889 18.8 15.0667 18.2667 15.0667H9.2V16.6667H18.2667C19.2444 16.6667 20.0444 16.3333 20.6667 15.6667C21.2889 15 21.6 14.2222 21.6 13.3333C21.6 12.4444 21.2889 11.6667 20.6667 11C20.0444 10.3333 19.2889 10 18.4 10ZM0.8 13.3333C0.622222 13.3333 0.444444 13.4222 0.266667 13.6C0.0888889 13.7778 0 13.9556 0 14.1333V14.9333H4.13333V13.3333H0.8ZM38.4 24.1333V35.8667C38.4 36.5778 38.1556 37.1556 37.6667 37.6C37.1778 38.0444 36.5778 38.2667 35.8667 38.2667H15.8667C15.1556 38.2667 14.5556 38.0444 14.0667 37.6C13.5778 37.1556 13.3333 36.5778 13.3333 35.8667V15.8667H11.7333V35.8667C11.7333 37.0222 12.1333 38 12.9333 38.8C13.7333 39.6 14.7111 40 15.8667 40H35.8667C37.0222 40 38 39.6 38.8 38.8C39.6 38 40 37.0222 40 35.8667V24.1333H38.4ZM35.8667 -3.8147e-06H19.2C18.9333 -3.8147e-06 18.7111 0.0888863 18.5333 0.266666L11.8667 6.93333L13.0667 8.13333L19.4667 1.6H35.8667C36.5778 1.6 37.1778 1.84444 37.6667 2.33333C38.1556 2.82222 38.4 3.42222 38.4 4.13333V15.8667H40V4.13333C40 2.97778 39.6 2 38.8 1.2C38 0.399998 37.0222 -3.8147e-06 35.8667 -3.8147e-06ZM19.7333 0.266666C19.5556 0.0888863 19.3556 -3.8147e-06 19.1333 -3.8147e-06C18.9111 -3.8147e-06 18.7111 0.0888863 18.5333 0.266666L11.8667 6.93333C11.7778 7.11111 11.7333 7.28889 11.7333 7.46666V10.8H13.3333V7.86666L18.4 2.8V5.86666C18.4 6.04444 18.3111 6.22222 18.1333 6.4C17.9556 6.57778 17.7333 6.66666 17.4667 6.66666H15.8667V8.4H17.4667C18.1778 8.4 18.7778 8.15555 19.2667 7.66666C19.7556 7.17778 20 6.57778 20 5.86666V0.799999C20 0.622219 19.9111 0.444443 19.7333 0.266666ZM5.06667 22.5333H3.33333C3.33333 24.1333 3.91111 25.4889 5.06667 26.6C6.22222 27.7111 7.6 28.3111 9.2 28.4V26.6667C8.04445 26.6667 7.06667 26.2667 6.26667 25.4667C5.46667 24.6667 5.02222 23.6889 4.93333 22.5333H5.06667ZM9.2 26.6667H12.5333V28.2667H9.2V26.6667ZM0 23.3333V24.1333C0 24.4 0.0888889 24.6222 0.266667 24.8C0.444444 24.9778 0.622222 25.0667 0.8 25.0667H4.13333V23.3333H0ZM39.3333 18.2667C38.8 17.7333 38.2 17.4667 37.5333 17.4667C36.8667 17.4667 36.2667 17.7333 35.7333 18.2667L24.2667 29.7333C24.0889 29.9111 24 30.1111 24 30.3333C24 30.5556 24.0889 30.7556 24.2667 30.9333L26.5333 33.3333C26.7111 33.4222 26.9111 33.4667 27.1333 33.4667C27.3556 33.4667 27.5556 33.4222 27.7333 33.3333L39.3333 21.7333C39.7778 21.2 40 20.6 40 19.9333C40 19.2667 39.7778 18.7111 39.3333 18.2667ZM38.1333 20.5333L27.0667 31.4667L26 30.4L36.9333 19.4667C37.1111 19.2889 37.3111 19.2 37.5333 19.2C37.7556 19.2 37.9556 19.2889 38.1333 19.4667C38.3111 19.5556 38.3778 19.7111 38.3333 19.9333C38.2889 20.1556 38.2222 20.3556 38.1333 20.5333ZM26.8 32L24.4 33.2L25.6 30.8L24.1333 30L21.7333 34.6667C21.6444 34.7556 21.6 34.8889 21.6 35.0667C21.6 35.2444 21.6889 35.4222 21.8667 35.6C22.0444 35.7778 22.2222 35.8667 22.4 35.8667C22.5778 35.8667 22.7556 35.8222 22.9333 35.7333L27.4667 33.4667L26.8 32ZM32.9333 22.2667L34.1333 21.0667L36.4 23.4667L35.2 24.6667L32.9333 22.2667ZM16.6667 34.1333H22.5333V35.8667H16.6667V34.1333ZM16.6667 30H21.6V31.6H16.6667V30ZM16.6667 25.8667H24.1333V27.4667H16.6667V25.8667ZM27.4667 34.1333H35.0667V35.8667H27.4667V34.1333ZM31.6 30H35.0667V31.6H31.6V30Z" fill="#32183B"/>
</svg>
