<svg width="40" height="40" viewBox="0 0 40 40" fill="none" xmlns="http://www.w3.org/2000/svg">
    <path d="M24.6666 9.33333C25.1111 9.33333 25.4889 9.17778 25.8 8.86666C26.1111 8.55555 26.2666 8.13333 26.2666 7.6V5.46666C26.2666 5.02222 26.1111 4.62222 25.8 4.26667C25.4889 3.91111 25.1111 3.73333 24.6666 3.73333H7.99997C7.55552 3.73333 7.15552 3.91111 6.79997 4.26667C6.44441 4.62222 6.26663 5.02222 6.26663 5.46666V7.6C6.26663 8.13333 6.44441 8.55555 6.79997 8.86666C7.15552 9.17778 7.55552 9.33333 7.99997 9.33333H24.6666ZM7.86663 7.6V5.46666C7.86663 5.37778 7.91108 5.33333 7.99997 5.33333H24.6666C24.6666 5.33333 24.6666 5.37778 24.6666 5.46666V7.6C24.6666 7.68889 24.6666 7.73333 24.6666 7.73333H7.99997C7.91108 7.73333 7.86663 7.68889 7.86663 7.6ZM29.6 14.4C28.2666 14.4 27.1333 14.8889 26.2 15.8667C25.2666 16.8444 24.8 18 24.8 19.3333C24.8 20.6667 25.2666 21.8 26.2 22.7333C27.1333 23.6667 28.2889 24.1333 29.6666 24.1333C31.0444 24.1333 32.2 23.6667 33.1333 22.7333C34.0666 21.8 34.5333 20.6667 34.5333 19.3333C34.5333 18 34.0666 16.8444 33.1333 15.8667C32.2 14.8889 31.0222 14.4 29.6 14.4ZM29.6 22.6667C28.7111 22.6667 27.9555 22.3333 27.3333 21.6667C26.7111 21 26.4 20.2222 26.4 19.3333C26.4 18.4444 26.7111 17.6667 27.3333 17C27.9555 16.3333 28.7333 16 29.6666 16C30.6 16 31.3777 16.3333 32 17C32.6222 17.6667 32.9333 18.4444 32.9333 19.3333C32.9333 20.2222 32.6222 21 32 21.6667C31.3777 22.3333 30.5777 22.6667 29.6 22.6667ZM6.26663 17.2C6.26663 17.6444 6.44441 18.0444 6.79997 18.4C7.15552 18.7556 7.59997 18.9333 8.1333 18.9333H16C16.4444 18.9333 16.8444 18.7556 17.2 18.4C17.5555 18.0444 17.7333 17.6444 17.7333 17.2V13.3333C17.7333 12.8889 17.5555 12.4889 17.2 12.1333C16.8444 11.7778 16.4444 11.6 16 11.6H8.1333C7.59997 11.6 7.15552 11.7778 6.79997 12.1333C6.44441 12.4889 6.26663 12.8889 6.26663 13.3333V17.2ZM7.86663 13.3333C7.86663 13.2444 7.95552 13.2 8.1333 13.2H16C16.1777 13.2 16.2666 13.2444 16.2666 13.3333V17.2C16.2666 17.2889 16.1777 17.3333 16 17.3333H8.1333C7.95552 17.3333 7.86663 17.2889 7.86663 17.2V13.3333ZM7.7333 22.5333H16.9333C17.2 22.5333 17.4 22.4444 17.5333 22.2667C17.6666 22.0889 17.7333 21.9111 17.7333 21.7333C17.7333 21.5556 17.6666 21.3778 17.5333 21.2C17.4 21.0222 17.2 20.9333 16.9333 20.9333H7.7333C7.55552 20.9333 7.37775 21.0222 7.19997 21.2C7.02219 21.3778 6.9333 21.5556 6.9333 21.7333C6.9333 21.9111 7.02219 22.0889 7.19997 22.2667C7.37775 22.4444 7.55552 22.5333 7.7333 22.5333ZM18.9333 24.8H7.7333C7.55552 24.8 7.37775 24.8667 7.19997 25C7.02219 25.1333 6.9333 25.3111 6.9333 25.5333C6.9333 25.7556 7.02219 25.9556 7.19997 26.1333C7.37775 26.3111 7.55552 26.4 7.7333 26.4H18.9333C19.2 26.4 19.4 26.3111 19.5333 26.1333C19.6666 25.9556 19.7333 25.7556 19.7333 25.5333C19.7333 25.3111 19.6666 25.1333 19.5333 25C19.4 24.8667 19.2 24.8 18.9333 24.8ZM17.4666 29.3333C17.4666 29.6 17.5333 29.8 17.6666 29.9333C17.8 30.0667 18 30.1333 18.2666 30.1333H21.7333C21.9111 30.1333 22.0666 30.0667 22.2 29.9333C22.3333 29.8 22.4 29.6222 22.4 29.4C22.4 29.1778 22.3333 29 22.2 28.8667C22.0666 28.7333 21.9111 28.6667 21.7333 28.6667H18.2666C18 28.6667 17.8 28.7333 17.6666 28.8667C17.5333 29 17.4666 29.1556 17.4666 29.3333ZM7.7333 28.6667C7.55552 28.6667 7.37775 28.7333 7.19997 28.8667C7.02219 29 6.9333 29.1778 6.9333 29.4C6.9333 29.6222 7.02219 29.8 7.19997 29.9333C7.37775 30.0667 7.55552 30.1333 7.7333 30.1333H11.2C11.4666 30.1333 11.6666 30.0667 11.8 29.9333C11.9333 29.8 12 29.6222 12 29.4C12 29.1778 11.9333 29 11.8 28.8667C11.6666 28.7333 11.4666 28.6667 11.2 28.6667H7.7333ZM3.46663 25.2C3.7333 25.2 3.9333 25.1333 4.06663 25C4.19997 24.8667 4.26663 24.6667 4.26663 24.4C4.26663 24.2222 4.19997 24.0444 4.06663 23.8667C3.9333 23.6889 3.75552 23.6 3.5333 23.6C3.31108 23.6 3.11108 23.6889 2.9333 23.8667C2.75552 24.0444 2.66663 24.2222 2.66663 24.4C2.66663 24.6667 2.75552 24.8667 2.9333 25C3.11108 25.1333 3.28886 25.2 3.46663 25.2ZM14.6666 28.6667C14.4889 28.6667 14.3111 28.7333 14.1333 28.8667C13.9555 29 13.8666 29.1778 13.8666 29.4C13.8666 29.6222 13.9555 29.8 14.1333 29.9333C14.3111 30.0667 14.4889 30.1333 14.6666 30.1333C14.9333 30.1333 15.1333 30.0667 15.2666 29.9333C15.4 29.8 15.4666 29.6222 15.4666 29.4C15.4666 29.1778 15.4 29 15.2666 28.8667C15.1333 28.7333 14.9333 28.6667 14.6666 28.6667ZM38.1333 16.8H37.7333C37.5555 16.2667 37.3777 15.7778 37.2 15.3333L37.3333 15.0667C37.6889 14.8 37.8666 14.4222 37.8666 13.9333C37.8666 13.4444 37.6889 13.0222 37.3333 12.6667L36.4 11.6C36.0444 11.2444 35.6222 11.0667 35.1333 11.0667C34.6444 11.0667 34.2222 11.2444 33.8666 11.6L33.6 11.8667C33.1555 11.6 32.6666 11.3778 32.1333 11.2V10.9333C32.1333 10.4889 32 10.1111 31.7333 9.8C31.4666 9.48889 31.1555 9.28889 30.8 9.2V2.4C30.8 1.68889 30.5555 1.11111 30.0666 0.666664C29.5777 0.222221 29.0222 -3.8147e-06 28.4 -3.8147e-06H5.06663C4.35552 -3.8147e-06 3.77775 0.222221 3.3333 0.666664C2.88886 1.11111 2.66663 1.68889 2.66663 2.4V20.9333C2.66663 21.1111 2.75552 21.2889 2.9333 21.4667C3.11108 21.6444 3.31108 21.7333 3.5333 21.7333C3.75552 21.7333 3.9333 21.6444 4.06663 21.4667C4.19997 21.2889 4.26663 21.1111 4.26663 20.9333V2.4C4.26663 2.13333 4.3333 1.93333 4.46663 1.8C4.59997 1.66666 4.79997 1.6 5.06663 1.6H28.4C28.5777 1.6 28.7555 1.66666 28.9333 1.8C29.1111 1.93333 29.2 2.13333 29.2 2.4V9.06667H28.9333C28.4 9.06667 27.9555 9.24444 27.6 9.6C27.2444 9.95555 27.0666 10.4 27.0666 10.9333V11.2C26.6222 11.3778 26.1777 11.6 25.7333 11.8667L25.4666 11.6C25.1111 11.2444 24.6889 11.0667 24.2 11.0667C23.7111 11.0667 23.2889 11.2444 22.9333 11.6L21.8666 12.6667C21.6 13.0222 21.4666 13.4444 21.4666 13.9333C21.4666 14.4222 21.6 14.8444 21.8666 15.2L22.1333 15.3333C21.8666 15.8667 21.6889 16.3556 21.6 16.8H21.2C20.7555 16.8 20.3555 16.9778 20 17.3333C19.6444 17.6889 19.4666 18.0889 19.4666 18.5333V20C19.4666 20.5333 19.6444 20.9778 20 21.3333C20.3555 21.6889 20.7555 21.8667 21.2 21.8667H21.6C21.6889 22.3111 21.8666 22.8 22.1333 23.3333L22 23.4667C21.6444 23.8222 21.4666 24.2444 21.4666 24.7333C21.4666 25.2222 21.6444 25.6444 22 26L22.9333 27.0667C23.2889 27.4222 23.7111 27.6 24.2 27.6C24.6889 27.6 25.1111 27.4222 25.4666 27.0667L25.7333 26.8C26.1777 27.0667 26.6666 27.2889 27.2 27.4667V27.7333C27.2 28.2667 27.3555 28.6889 27.6666 29C27.9777 29.3111 28.4 29.4667 28.9333 29.4667H29.2V36.2667C29.2 36.8889 29 37.4 28.6 37.8C28.2 38.2 27.6889 38.4 27.0666 38.4C26.4444 38.4 25.9333 38.2 25.5333 37.8C25.1333 37.4 24.9333 36.8889 24.9333 36.2667V34.2667C24.9333 33.7333 24.7555 33.2889 24.4 32.9333C24.0444 32.5778 23.6444 32.4 23.2 32.4H4.26663V27.8667C4.26663 27.6889 4.19997 27.5111 4.06663 27.3333C3.9333 27.1556 3.75552 27.0667 3.5333 27.0667C3.31108 27.0667 3.11108 27.1556 2.9333 27.3333C2.75552 27.5111 2.66663 27.6889 2.66663 27.8667V32.4H1.99997C1.46663 32.4 1.02219 32.5778 0.666634 32.9333C0.311079 33.2889 0.133301 33.7333 0.133301 34.2667V36.2667C0.133301 37.3333 0.488856 38.2222 1.19997 38.9333C1.91108 39.6444 2.79997 40 3.86663 40H27.0666C28.0444 40 28.9111 39.6444 29.6666 38.9333C30.4222 38.2222 30.8 37.3333 30.8 36.2667V29.4667C31.1555 29.3778 31.4666 29.1778 31.7333 28.8667C32 28.5556 32.1333 28.1778 32.1333 27.7333V27.4667C32.6666 27.2889 33.1555 27.0667 33.6 26.8L33.8666 27.0667C34.2222 27.4222 34.6444 27.6 35.1333 27.6C35.6222 27.6 36.0444 27.4222 36.4 27.0667L37.3333 26C37.6889 25.6444 37.8666 25.2222 37.8666 24.7333C37.8666 24.2444 37.6889 23.8222 37.3333 23.4667L37.2 23.3333C37.3777 22.8 37.5555 22.3111 37.7333 21.8667H38.1333C38.5777 21.8667 38.9777 21.6889 39.3333 21.3333C39.6889 20.9778 39.8666 20.5333 39.8666 20V18.5333C39.8666 18.0889 39.6889 17.6889 39.3333 17.3333C38.9777 16.9778 38.5777 16.8 38.1333 16.8ZM3.86663 38.4C3.24441 38.4 2.7333 38.2 2.3333 37.8C1.9333 37.4 1.7333 36.8889 1.7333 36.2667V34.2667C1.7333 34.0889 1.82219 34 1.99997 34H23.2C23.2889 34 23.3333 34.0889 23.3333 34.2667V36.2667C23.3333 37.0667 23.5555 37.7778 24 38.4H3.86663ZM38.2666 20C38.2666 20.1778 38.2222 20.2667 38.1333 20.2667H37.2C36.7555 20.2667 36.4889 20.4444 36.4 20.8C36.2222 21.6 35.9111 22.3111 35.4666 22.9333C35.2889 23.2889 35.3333 23.6444 35.6 24L36.2666 24.6667C36.3555 24.7556 36.3555 24.8444 36.2666 24.9333L35.2 25.8667L35.0666 26L34.9333 25.8667L34.2666 25.3333C34.1777 25.1556 34.0444 25.0667 33.8666 25.0667C33.6889 25.0667 33.5111 25.1111 33.3333 25.2C32.6222 25.5556 31.9111 25.8222 31.2 26C31.0222 26.0889 30.8666 26.2 30.7333 26.3333C30.6 26.4667 30.5333 26.6222 30.5333 26.8V27.7333C30.5333 27.9111 30.4889 28 30.4 28H28.9333C28.7555 28 28.6666 27.9111 28.6666 27.7333V26.8C28.6666 26.3556 28.4889 26.0889 28.1333 26C27.3333 25.8222 26.6222 25.5556 26 25.2C25.8222 25.1111 25.6444 25.0667 25.4666 25.0667C25.2889 25.0667 25.1555 25.1556 25.0666 25.3333L24.4 25.8667L24.2666 26L24.1333 25.8667L23.0666 24.9333C22.9777 24.8444 22.9777 24.7556 23.0666 24.6667L23.7333 24C23.8222 23.8222 23.8889 23.6444 23.9333 23.4667C23.9777 23.2889 23.9555 23.1111 23.8666 22.9333C23.4222 22.3111 23.1111 21.6 22.9333 20.8C22.8444 20.4444 22.5777 20.2667 22.1333 20.2667H21.2C21.1111 20.2667 21.0666 20.1778 21.0666 20V18.5333C21.0666 18.4444 21.1111 18.4 21.2 18.4H22.1333C22.3111 18.4 22.4666 18.3333 22.6 18.2C22.7333 18.0667 22.8444 17.9111 22.9333 17.7333C23.1111 17.0222 23.3777 16.3111 23.7333 15.6C24 15.2444 24 14.9333 23.7333 14.6667L23.0666 14C22.9777 13.9111 22.9777 13.8222 23.0666 13.7333L24 12.6667H24.2666H24.4L24.9333 13.3333C25.1111 13.5111 25.2889 13.6 25.4666 13.6C25.6444 13.6 25.8222 13.5556 26 13.4667C26.6222 13.0222 27.3333 12.7111 28.1333 12.5333C28.4889 12.4444 28.6666 12.2222 28.6666 11.8667V10.9333C28.6666 10.7556 28.7555 10.6667 28.9333 10.6667H30.4C30.4889 10.6667 30.5333 10.7556 30.5333 10.9333V11.8667C30.5333 12.0444 30.6 12.2 30.7333 12.3333C30.8666 12.4667 31.0222 12.5333 31.2 12.5333C31.9111 12.7111 32.6222 13.0222 33.3333 13.4667C33.6889 13.6444 34 13.6 34.2666 13.3333L34.9333 12.6667H35.0666H35.2L36.2666 13.7333C36.3555 13.8222 36.3555 13.9111 36.2666 14L35.6 14.6667C35.3333 14.9333 35.2889 15.2444 35.4666 15.6C35.9111 16.3111 36.2222 17.0222 36.4 17.7333C36.4 17.9111 36.4889 18.0667 36.6666 18.2C36.8444 18.3333 37.0222 18.4 37.2 18.4H38.1333C38.2222 18.4 38.2666 18.4444 38.2666 18.5333V20Z" fill="#32183B"/>
</svg>
